<?xml version="1.0" encoding="UTF-8" standalone="no"?>
<svg
   xmlns:dc="http://purl.org/dc/elements/1.1/"
   xmlns:cc="http://creativecommons.org/ns#"
   xmlns:rdf="http://www.w3.org/1999/02/22-rdf-syntax-ns#"
   xmlns:svg="http://www.w3.org/2000/svg"
   xmlns="http://www.w3.org/2000/svg"
   xmlns:sodipodi="http://sodipodi.sourceforge.net/DTD/sodipodi-0.dtd"
   xmlns:inkscape="http://www.inkscape.org/namespaces/inkscape"
   enable-background="new 0 0 1677.573 1677.573"
   version="1.1"
   viewBox="0 0 1677.573 1677.573"
   xml:space="preserve"
   id="svg4602"
   inkscape:version="0.91 r13725"
   sodipodi:docname="fresque.svg"><metadata
     id="metadata5028"><rdf:RDF><cc:Work
         rdf:about=""><dc:format>image/svg+xml</dc:format><dc:type
           rdf:resource="http://purl.org/dc/dcmitype/StillImage" /></cc:Work></rdf:RDF></metadata><defs
     id="defs5026" /><sodipodi:namedview
     pagecolor="#ffffff"
     bordercolor="#666666"
     borderopacity="1"
     objecttolerance="10"
     gridtolerance="10"
     guidetolerance="10"
     inkscape:pageopacity="0"
     inkscape:pageshadow="2"
     inkscape:window-width="1855"
     inkscape:window-height="1056"
     id="namedview5024"
     showgrid="false"
     inkscape:zoom="0.54781521"
     inkscape:cx="838.7865"
     inkscape:cy="838.7865"
     inkscape:window-x="65"
     inkscape:window-y="24"
     inkscape:window-maximized="1"
     inkscape:current-layer="svg4602" /><path
     d="m1377.6 299.95c0-0.114 0-0.228 1e-3 -0.342-8.378 0.028-16.762-0.057-25.135 0.04-2.861 0.539-5.637 1.43-8.458 2.106-2.571 0.732-5.347 1.067-7.589 2.634-4.49 2.986-8.35 6.806-12.176 10.581-6.25-6.244-12.499-12.488-18.721-18.755 6.857-6.692 14.634-12.613 23.546-16.297 6.67-2.662 13.6-4.768 20.713-5.864 7.867-1.447 15.905-1.061 23.863-1.124h30.635v0.341h0.341v30.635c-0.063 7.958 0.323 15.996-1.124 23.863-1.095 7.112-3.201 14.043-5.864 20.713-3.684 8.912-9.604 16.688-16.297 23.545-6.267-6.221-12.511-12.471-18.755-18.721 3.775-3.826 7.595-7.686 10.581-12.176 1.567-2.242 1.902-5.018 2.634-7.589 0.676-2.821 1.567-5.597 2.106-8.458 0.097-8.373 0.011-16.757 0.04-25.135-0.113 3e-3 -0.227 3e-3 -0.341 3e-3z"
     id="path4604"
     style="fill:#962900;fill-opacity:0.24758911" /><path
     d="m1600.8 838.79c0.081-0.08 0.161-0.161 0.242-0.241-5.944-5.904-11.813-11.893-17.801-17.745-2.404-1.642-4.997-2.974-7.47-4.491-2.336-1.3-4.536-3.026-7.229-3.504-5.286-1.064-10.717-1.092-16.091-1.128-4e-3 -8.834-8e-3 -17.669 0.024-26.499 9.581 0.116 19.266 1.429 28.173 5.126 6.599 2.834 12.989 6.245 18.792 10.5 6.587 4.54 11.997 10.496 17.669 16.079l21.662 21.662-0.241 0.241 0.241 0.241-21.662 21.662c-5.672 5.583-11.082 11.54-17.669 16.079-5.804 4.255-12.194 7.666-18.792 10.5-8.907 3.697-18.592 5.009-28.173 5.126-0.032-8.83-0.028-17.665-0.024-26.499 5.374-0.036 10.805-0.064 16.091-1.128 2.693-0.478 4.893-2.204 7.229-3.504 2.473-1.517 5.065-2.85 7.47-4.491 5.989-5.852 11.857-11.841 17.801-17.745-0.08-0.08-0.161-0.161-0.242-0.241z"
     id="path4606"
     style="fill:#962900;fill-opacity:0.24758911" /><path
     d="m1377.6 1377.6c0.114 0 0.228 0 0.342 1e-3 -0.028-8.378 0.057-16.762-0.04-25.135-0.539-2.861-1.43-5.637-2.106-8.458-0.732-2.571-1.067-5.347-2.634-7.589-2.986-4.49-6.806-8.35-10.581-12.176 6.244-6.25 12.488-12.499 18.755-18.721 6.692 6.857 12.613 14.634 16.297 23.546 2.662 6.67 4.768 13.6 5.864 20.713 1.448 7.867 1.062 15.905 1.124 23.863v30.635h-0.341v0.341h-30.635c-7.958-0.063-15.996 0.323-23.863-1.124-7.112-1.095-14.043-3.201-20.713-5.864-8.912-3.684-16.688-9.604-23.546-16.297 6.221-6.267 12.471-12.511 18.721-18.755 3.826 3.775 7.686 7.595 12.176 10.581 2.242 1.567 5.018 1.902 7.589 2.634 2.821 0.676 5.597 1.567 8.458 2.106 8.373 0.097 16.757 0.011 25.135 0.04-1e-3 -0.113-2e-3 -0.227-2e-3 -0.341z"
     id="path4608"
     style="fill:#962900;fill-opacity:0.24758911" /><path
     d="m838.79 1600.8c0.08 0.081 0.161 0.161 0.241 0.242 5.904-5.944 11.893-11.813 17.745-17.801 1.642-2.404 2.974-4.997 4.491-7.47 1.3-2.336 3.026-4.536 3.504-7.229 1.064-5.286 1.092-10.717 1.128-16.091 8.834-4e-3 17.669-8e-3 26.499 0.024-0.116 9.581-1.429 19.266-5.126 28.173-2.834 6.599-6.245 12.989-10.5 18.792-4.54 6.587-10.496 11.997-16.079 17.669l-21.662 21.662-0.241-0.241-0.241 0.241-21.662-21.662c-5.583-5.672-11.54-11.082-16.079-17.669-4.255-5.804-7.666-12.194-10.5-18.792-3.697-8.907-5.009-18.592-5.126-28.173 8.83-0.032 17.665-0.028 26.499-0.024 0.036 5.374 0.064 10.805 1.128 16.091 0.478 2.693 2.204 4.893 3.504 7.229 1.517 2.473 2.85 5.065 4.491 7.47 5.852 5.989 11.841 11.857 17.745 17.801 0.08-0.08 0.16-0.161 0.241-0.242z"
     id="path4610"
     style="fill:#962900;fill-opacity:0.24758911" /><path
     d="m299.95 1377.6c0 0.114 0 0.228-1e-3 0.342 8.378-0.028 16.762 0.057 25.135-0.04 2.861-0.539 5.637-1.43 8.458-2.106 2.571-0.732 5.347-1.067 7.589-2.634 4.49-2.986 8.35-6.806 12.176-10.581 6.25 6.244 12.499 12.488 18.721 18.755-6.857 6.692-14.634 12.613-23.545 16.297-6.67 2.662-13.6 4.768-20.713 5.864-7.867 1.448-15.905 1.062-23.863 1.124h-30.635v-0.341h-0.341v-30.635c0.062-7.958-0.324-15.996 1.124-23.863 1.096-7.112 3.201-14.043 5.864-20.713 3.684-8.912 9.604-16.688 16.297-23.546 6.267 6.221 12.511 12.471 18.755 18.721-3.775 3.826-7.595 7.686-10.581 12.176-1.567 2.242-1.902 5.018-2.634 7.589-0.675 2.821-1.567 5.597-2.106 8.458-0.096 8.373-0.011 16.757-0.04 25.135 0.113-1e-3 0.226-2e-3 0.34-2e-3z"
     id="path4612"
     style="fill:#962900;fill-opacity:0.24758911" /><path
     d="m76.758 838.79c-0.081 0.08-0.161 0.161-0.242 0.241 5.944 5.904 11.813 11.893 17.801 17.745 2.404 1.642 4.997 2.974 7.47 4.491 2.336 1.3 4.536 3.026 7.229 3.504 5.286 1.064 10.717 1.092 16.091 1.128 4e-3 8.834 8e-3 17.669-0.024 26.499-9.581-0.116-19.266-1.429-28.173-5.126-6.599-2.834-12.989-6.245-18.793-10.5-6.587-4.54-11.997-10.496-17.669-16.079l-21.662-21.662 0.241-0.241-0.241-0.241 21.662-21.662c5.671-5.583 11.082-11.54 17.669-16.079 5.804-4.255 12.194-7.666 18.793-10.5 8.907-3.697 18.592-5.009 28.173-5.126 0.032 8.83 0.028 17.665 0.024 26.499-5.374 0.036-10.805 0.064-16.091 1.128-2.693 0.478-4.893 2.204-7.229 3.504-2.473 1.517-5.065 2.85-7.47 4.491-5.989 5.852-11.857 11.841-17.801 17.745 0.081 0.08 0.162 0.16 0.242 0.241z"
     id="path4614"
     style="fill:#962900;fill-opacity:0.24758911" /><path
     d="m299.95 299.95c-0.114 0-0.228 0-0.342-1e-3 0.028 8.378-0.057 16.762 0.04 25.135 0.539 2.861 1.43 5.637 2.106 8.458 0.732 2.571 1.067 5.347 2.634 7.589 2.986 4.49 6.806 8.35 10.581 12.176-6.244 6.25-12.488 12.499-18.755 18.721-6.692-6.857-12.613-14.634-16.297-23.545-2.662-6.67-4.768-13.6-5.864-20.713-1.447-7.867-1.061-15.905-1.124-23.863v-30.635h0.341v-0.341h30.635c7.958 0.062 15.996-0.324 23.863 1.124 7.112 1.096 14.043 3.201 20.713 5.864 8.912 3.684 16.688 9.604 23.545 16.297-6.221 6.267-12.471 12.511-18.721 18.755-3.826-3.775-7.686-7.595-12.176-10.581-2.242-1.567-5.018-1.902-7.589-2.634-2.821-0.675-5.597-1.567-8.458-2.106-8.373-0.096-16.757-0.011-25.135-0.04 3e-3 0.113 3e-3 0.226 3e-3 0.34z"
     id="path4616"
     style="fill:#962900;fill-opacity:0.24758911" /><path
     d="m838.79 76.758c-0.08-0.081-0.161-0.161-0.241-0.242-5.904 5.944-11.893 11.813-17.745 17.801-1.642 2.404-2.974 4.997-4.491 7.47-1.3 2.336-3.026 4.536-3.504 7.229-1.064 5.286-1.092 10.717-1.128 16.091-8.834 4e-3 -17.669 8e-3 -26.499-0.024 0.116-9.581 1.429-19.266 5.126-28.173 2.834-6.599 6.245-12.989 10.5-18.793 4.54-6.587 10.496-11.997 16.079-17.669l21.662-21.662 0.241 0.241 0.241-0.241 21.662 21.662c5.583 5.671 11.54 11.082 16.079 17.669 4.255 5.804 7.666 12.194 10.5 18.793 3.697 8.907 5.009 18.592 5.126 28.173-8.83 0.032-17.665 0.028-26.499 0.024-0.036-5.374-0.064-10.805-1.128-16.091-0.478-2.693-2.204-4.893-3.504-7.229-1.517-2.473-2.85-5.065-4.491-7.47-5.852-5.989-11.841-11.857-17.745-17.801-0.08 0.081-0.161 0.162-0.241 0.242z"
     id="path4618"
     style="fill:#962900;fill-opacity:0.24758911" /><path
     d="m1065.6 291.25c2.812 2.168 5.488 4.519 8.055 6.954 18.255 18.249 36.493 36.516 54.777 54.737-6.238 6.267-12.471 12.539-18.76 18.755-14.009-14.026-27.962-28.109-42.101-41.999-4.202-4.103-8.504-8.105-12.946-11.949-5.859-0.423-11.731-0.635-17.603-0.705-19.82-0.177-39.644-0.084-59.468-0.072-0.052-8.842-0.024-17.685-4e-3 -26.527 25.813 0.044 51.625 0.024 77.438 0.028 3.536 0.093 7.091 0.323 10.612 0.778z"
     id="path4620"
     style="fill:#962900;fill-opacity:0.24758911" /><path
     d="m1386.3 611.99c0.455 3.521 0.685 7.076 0.779 10.613 4e-3 25.813-0.016 51.625 0.028 77.438-8.842 0.02-17.685 0.048-26.527-4e-3 0.012-19.824 0.104-39.648-0.072-59.468-0.07-5.872-0.282-11.744-0.705-17.603-3.844-4.442-7.846-8.744-11.949-12.946-13.89-14.14-27.973-28.092-41.999-42.101 6.216-6.289 12.488-12.522 18.755-18.76 18.221 18.283 36.488 36.522 54.737 54.777 2.433 2.567 4.785 5.242 6.953 8.054z"
     id="path4622"
     style="fill:#962900;fill-opacity:0.24758911" /><path
     d="m1386.3 1065.6c-2.168 2.812-4.519 5.488-6.954 8.055-18.249 18.255-36.516 36.493-54.737 54.777-6.267-6.238-12.539-12.471-18.755-18.76 14.026-14.009 28.109-27.962 41.999-42.101 4.103-4.202 8.104-8.504 11.949-12.946 0.423-5.859 0.635-11.731 0.705-17.603 0.177-19.82 0.084-39.644 0.072-59.468 8.842-0.052 17.685-0.024 26.527-4e-3 -0.044 25.813-0.024 51.625-0.028 77.438-0.094 3.536-0.323 7.091-0.778 10.612z"
     id="path4624"
     style="fill:#962900;fill-opacity:0.24758911" /><path
     d="m1065.6 1386.3c-3.521 0.455-7.076 0.685-10.613 0.779-25.813 4e-3 -51.625-0.016-77.438 0.028-0.02-8.842-0.048-17.685 4e-3 -26.527 19.824 0.012 39.648 0.104 59.468-0.072 5.872-0.07 11.744-0.282 17.603-0.705 4.442-3.844 8.744-7.846 12.946-11.949 14.14-13.89 28.092-27.973 42.101-41.999 6.289 6.216 12.522 12.488 18.76 18.755-18.284 18.221-36.522 36.488-54.777 54.737-2.566 2.433-5.242 4.785-8.054 6.953z"
     id="path4626"
     style="fill:#962900;fill-opacity:0.24758911" /><path
     d="m611.99 1386.3c-2.812-2.168-5.488-4.519-8.055-6.954-18.255-18.249-36.493-36.516-54.777-54.737 6.238-6.267 12.471-12.539 18.76-18.755 14.009 14.026 27.962 28.109 42.101 41.999 4.202 4.103 8.504 8.104 12.946 11.949 5.859 0.423 11.731 0.635 17.603 0.705 19.82 0.177 39.644 0.084 59.468 0.072 0.052 8.842 0.024 17.685 4e-3 26.527-25.813-0.044-51.625-0.024-77.438-0.028-3.536-0.094-7.091-0.323-10.612-0.778z"
     id="path4628"
     style="fill:#962900;fill-opacity:0.24758911" /><path
     d="m291.25 1065.6c-0.455-3.521-0.685-7.076-0.779-10.613-4e-3 -25.813 0.016-51.625-0.028-77.438 8.842-0.02 17.685-0.048 26.527 4e-3 -0.012 19.824-0.104 39.648 0.072 59.468 0.07 5.872 0.282 11.744 0.705 17.603 3.844 4.442 7.846 8.744 11.949 12.946 13.89 14.14 27.973 28.092 41.999 42.101-6.216 6.289-12.488 12.522-18.755 18.76-18.221-18.284-36.488-36.522-54.737-54.777-2.434-2.566-4.785-5.242-6.953-8.054z"
     id="path4630"
     style="fill:#962900;fill-opacity:0.24758911" /><path
     d="m291.25 611.99c2.168-2.812 4.519-5.488 6.954-8.055 18.249-18.255 36.516-36.493 54.737-54.777 6.267 6.238 12.539 12.471 18.755 18.76-14.026 14.009-28.109 27.962-41.999 42.101-4.103 4.202-8.105 8.504-11.949 12.946-0.423 5.859-0.635 11.731-0.705 17.603-0.177 19.82-0.084 39.644-0.072 59.468-8.842 0.052-17.685 0.024-26.527 4e-3 0.044-25.813 0.024-51.625 0.028-77.438 0.093-3.536 0.323-7.091 0.778-10.612z"
     id="path4632"
     style="fill:#962900;fill-opacity:0.24758911" /><path
     d="m611.99 291.25c3.521-0.455 7.076-0.685 10.613-0.779 25.813-4e-3 51.625 0.016 77.438-0.028 0.02 8.842 0.048 17.685-4e-3 26.527-19.824-0.012-39.648-0.104-59.468 0.072-5.872 0.07-11.744 0.282-17.603 0.705-4.442 3.844-8.744 7.846-12.946 11.949-14.14 13.89-28.092 27.973-42.101 41.999-6.289-6.216-12.522-12.488-18.76-18.755 18.283-18.221 36.522-36.488 54.777-54.737 2.567-2.434 5.242-4.785 8.054-6.953z"
     id="path4634"
     style="fill:#962900;fill-opacity:0.24758911" /><path
     d="m1105 280.84c12.795-2.191 25.822-4.371 38.826-2.884 10.933 1.152 22.007 3.945 31.123 10.337 8.577 5.603 15.445 13.283 22.688 20.423 14.747 14.747 29.494 29.506 44.264 44.224-6.238 6.267-12.471 12.539-18.76 18.755-14.571-14.577-29.057-29.239-43.793-43.651-5.12-4.848-10.257-9.701-15.82-14.049-6.857-5.461-15.775-7.294-24.306-8.06-8.895-0.539-17.892-0.397-26.696 1.044-5.591 1.606-10.49 4.91-15.377 7.964-6.238-6.233-12.477-12.465-18.692-18.726 7.113-7.516 16.246-13.498 26.543-15.377z"
     id="path4636"
     style="fill:#962900;fill-opacity:0.24758911" /><path
     d="m632.53 255.99c7.498-10.596 15.168-21.349 25.415-29.493 8.545-6.916 18.351-12.772 29.317-14.698 10.026-2.103 20.314-1.529 30.485-1.601 20.856 0 41.719 8e-3 62.571-0.028 0.02 8.842 0.048 17.685-4e-3 26.527-20.611-4e-3 -41.221-0.128-61.832 0.1-7.048 0.193-14.112 0.393-21.12 1.252-8.71 0.987-16.312 5.997-22.887 11.487-6.671 5.908-12.932 12.37-18.138 19.615-2.818 5.089-3.945 10.889-5.242 16.505-8.818 4e-3 -17.637 8e-3 -26.459-0.024-0.286-10.343 1.942-21.032 7.894-29.642z"
     id="path4638"
     style="fill:#962900;fill-opacity:0.24758911" /><path
     d="m280.84 572.53c-2.191-12.794-4.371-25.822-2.884-38.826 1.152-10.933 3.945-22.007 10.337-31.123 5.603-8.577 13.283-15.445 20.423-22.688 14.747-14.747 29.506-29.494 44.224-44.264 6.267 6.238 12.539 12.471 18.755 18.76-14.577 14.571-29.239 29.057-43.651 43.793-4.848 5.12-9.701 10.257-14.049 15.82-5.461 6.857-7.294 15.775-8.06 24.306-0.539 8.895-0.397 17.892 1.044 26.696 1.606 5.591 4.91 10.49 7.964 15.377-6.233 6.238-12.465 12.477-18.726 18.692-7.516-7.113-13.498-16.246-15.377-26.543z"
     id="path4640"
     style="fill:#962900;fill-opacity:0.24758911" /><path
     d="m255.99 1045c-10.596-7.498-21.349-15.168-29.493-25.415-6.916-8.545-12.772-18.351-14.698-29.317-2.103-10.026-1.529-20.314-1.601-30.485 0-20.856 8e-3 -41.719-0.028-62.571 8.842-0.02 17.685-0.048 26.527 4e-3 -4e-3 20.611-0.128 41.221 0.1 61.832 0.193 7.048 0.393 14.112 1.252 21.12 0.987 8.71 5.997 16.312 11.487 22.887 5.908 6.671 12.37 12.932 19.615 18.138 5.089 2.818 10.889 3.946 16.505 5.242 4e-3 8.818 8e-3 17.637-0.024 26.459-10.343 0.286-21.032-1.941-29.642-7.894z"
     id="path4642"
     style="fill:#962900;fill-opacity:0.24758911" /><path
     d="m572.53 1396.7c-12.794 2.191-25.822 4.371-38.826 2.884-10.933-1.152-22.007-3.945-31.123-10.337-8.577-5.603-15.445-13.283-22.688-20.423-14.747-14.747-29.494-29.506-44.264-44.224 6.238-6.267 12.471-12.539 18.76-18.755 14.571 14.577 29.057 29.239 43.793 43.651 5.12 4.848 10.257 9.701 15.82 14.049 6.857 5.461 15.775 7.294 24.306 8.06 8.895 0.539 17.892 0.397 26.696-1.045 5.591-1.606 10.49-4.91 15.377-7.964 6.238 6.233 12.477 12.465 18.692 18.726-7.113 7.516-16.246 13.499-26.543 15.378z"
     id="path4644"
     style="fill:#962900;fill-opacity:0.24758911" /><path
     d="m1045 1421.6c-7.498 10.596-15.168 21.349-25.415 29.493-8.545 6.916-18.351 12.772-29.317 14.698-10.026 2.103-20.314 1.529-30.485 1.602-20.856 0-41.719-8e-3 -62.571 0.028-0.02-8.842-0.048-17.685 4e-3 -26.527 20.611 4e-3 41.221 0.128 61.832-0.1 7.048-0.193 14.112-0.393 21.12-1.252 8.71-0.987 16.312-5.997 22.887-11.487 6.671-5.908 12.932-12.37 18.138-19.615 2.818-5.089 3.946-10.889 5.242-16.505 8.818-4e-3 17.637-8e-3 26.459 0.024 0.286 10.343-1.941 21.031-7.894 29.641z"
     id="path4646"
     style="fill:#962900;fill-opacity:0.24758911" /><path
     d="m1396.7 1105c2.191 12.795 4.371 25.822 2.884 38.826-1.152 10.933-3.945 22.007-10.337 31.123-5.603 8.577-13.283 15.445-20.423 22.688-14.747 14.747-29.506 29.494-44.224 44.264-6.267-6.238-12.539-12.471-18.755-18.76 14.577-14.571 29.239-29.057 43.651-43.793 4.848-5.12 9.701-10.257 14.049-15.82 5.461-6.857 7.294-15.775 8.06-24.306 0.539-8.895 0.397-17.892-1.045-26.696-1.606-5.591-4.91-10.49-7.964-15.377 6.233-6.238 12.465-12.477 18.726-18.692 7.516 7.113 13.499 16.246 15.378 26.543z"
     id="path4648"
     style="fill:#962900;fill-opacity:0.24758911" /><path
     d="m1421.6 632.53c10.596 7.498 21.349 15.168 29.493 25.415 6.916 8.545 12.772 18.351 14.698 29.317 2.103 10.026 1.529 20.314 1.602 30.485 0 20.856-8e-3 41.719 0.028 62.571-8.842 0.02-17.685 0.048-26.527-4e-3 4e-3 -20.611 0.128-41.221-0.1-61.832-0.193-7.048-0.393-14.112-1.252-21.12-0.987-8.71-5.997-16.312-11.487-22.887-5.908-6.671-12.37-12.932-19.615-18.138-5.089-2.818-10.889-3.945-16.505-5.242-4e-3 -8.818-8e-3 -17.637 0.024-26.459 10.343-0.286 21.031 1.942 29.641 7.894z"
     id="path4650"
     style="fill:#962900;fill-opacity:0.24758911" /><path
     d="m1396.7 572.53c2.191-12.794 4.371-25.822 2.884-38.826-1.152-10.933-3.945-22.007-10.337-31.123-5.603-8.577-13.283-15.445-20.423-22.688-14.747-14.747-29.506-29.494-44.224-44.264-6.267 6.238-12.539 12.471-18.755 18.76 14.577 14.571 29.239 29.057 43.651 43.793 4.848 5.12 9.701 10.257 14.049 15.82 5.461 6.857 7.294 15.775 8.06 24.306 0.539 8.895 0.397 17.892-1.045 26.696-1.606 5.591-4.91 10.49-7.964 15.377 6.233 6.238 12.465 12.477 18.726 18.692 7.516-7.113 13.499-16.246 15.378-26.543z"
     id="path4652"
     style="fill:#962900;fill-opacity:0.24758911" /><path
     d="m1045 255.99c-7.498-10.596-15.168-21.349-25.415-29.493-8.545-6.916-18.351-12.772-29.317-14.698-10.026-2.103-20.314-1.529-30.485-1.601-20.856 0-41.719 8e-3 -62.571-0.028-0.02 8.842-0.048 17.685 4e-3 26.527 20.611-4e-3 41.221-0.128 61.832 0.1 7.048 0.193 14.112 0.393 21.12 1.252 8.71 0.987 16.312 5.997 22.887 11.487 6.671 5.908 12.932 12.37 18.138 19.615 2.818 5.089 3.946 10.889 5.242 16.505 8.818 4e-3 17.637 8e-3 26.459-0.024 0.286-10.343-1.941-21.032-7.894-29.642z"
     id="path4654"
     style="fill:#962900;fill-opacity:0.24758911" /><path
     d="m572.53 280.84c-12.794-2.191-25.822-4.371-38.826-2.884-10.933 1.152-22.007 3.945-31.123 10.337-8.577 5.603-15.445 13.283-22.688 20.423-14.747 14.747-29.494 29.506-44.264 44.224 6.238 6.267 12.471 12.539 18.76 18.755 14.571-14.577 29.057-29.239 43.793-43.651 5.12-4.848 10.257-9.701 15.82-14.049 6.857-5.461 15.775-7.294 24.306-8.06 8.895-0.539 17.892-0.397 26.696 1.044 5.591 1.606 10.49 4.91 15.377 7.964 6.238-6.233 12.477-12.465 18.692-18.726-7.113-7.516-16.246-13.498-26.543-15.377z"
     id="path4656"
     style="fill:#962900;fill-opacity:0.24758911" /><path
     d="m255.99 632.53c-10.596 7.498-21.349 15.168-29.493 25.415-6.916 8.545-12.772 18.351-14.698 29.317-2.103 10.026-1.529 20.314-1.601 30.485 0 20.856 8e-3 41.719-0.028 62.571 8.842 0.02 17.685 0.048 26.527-4e-3 -4e-3 -20.611-0.128-41.221 0.1-61.832 0.193-7.048 0.393-14.112 1.252-21.12 0.987-8.71 5.997-16.312 11.487-22.887 5.908-6.671 12.37-12.932 19.615-18.138 5.089-2.818 10.889-3.945 16.505-5.242 4e-3 -8.818 8e-3 -17.637-0.024-26.459-10.343-0.286-21.032 1.942-29.642 7.894z"
     id="path4658"
     style="fill:#962900;fill-opacity:0.24758911" /><path
     d="m280.84 1105c-2.191 12.795-4.371 25.822-2.884 38.826 1.152 10.933 3.945 22.007 10.337 31.123 5.603 8.577 13.283 15.445 20.423 22.688 14.747 14.747 29.506 29.494 44.224 44.264 6.267-6.238 12.539-12.471 18.755-18.76-14.577-14.571-29.239-29.057-43.651-43.793-4.848-5.12-9.701-10.257-14.049-15.82-5.461-6.857-7.294-15.775-8.06-24.306-0.539-8.895-0.397-17.892 1.044-26.696 1.606-5.591 4.91-10.49 7.964-15.377-6.233-6.238-12.465-12.477-18.726-18.692-7.516 7.113-13.498 16.246-15.377 26.543z"
     id="path4660"
     style="fill:#962900;fill-opacity:0.24758911" /><path
     d="m632.53 1421.6c7.498 10.596 15.168 21.349 25.415 29.493 8.545 6.916 18.351 12.772 29.317 14.698 10.026 2.103 20.314 1.529 30.485 1.602 20.856 0 41.719-8e-3 62.571 0.028 0.02-8.842 0.048-17.685-4e-3 -26.527-20.611 4e-3 -41.221 0.128-61.832-0.1-7.048-0.193-14.112-0.393-21.12-1.252-8.71-0.987-16.312-5.997-22.887-11.487-6.671-5.908-12.932-12.37-18.138-19.615-2.818-5.089-3.945-10.889-5.242-16.505-8.818-4e-3 -17.637-8e-3 -26.459 0.024-0.286 10.343 1.942 21.031 7.894 29.641z"
     id="path4662"
     style="fill:#962900;fill-opacity:0.24758911" /><path
     d="m1105 1396.7c12.795 2.191 25.822 4.371 38.826 2.884 10.933-1.152 22.007-3.945 31.123-10.337 8.577-5.603 15.445-13.283 22.688-20.423 14.747-14.747 29.494-29.506 44.264-44.224-6.238-6.267-12.471-12.539-18.76-18.755-14.571 14.577-29.057 29.239-43.793 43.651-5.12 4.848-10.257 9.701-15.82 14.049-6.857 5.461-15.775 7.294-24.306 8.06-8.895 0.539-17.892 0.397-26.696-1.045-5.591-1.606-10.49-4.91-15.377-7.964-6.238 6.233-12.477 12.465-18.692 18.726 7.113 7.516 16.246 13.499 26.543 15.378z"
     id="path4664"
     style="fill:#962900;fill-opacity:0.24758911" /><path
     d="m1421.6 1045c10.596-7.498 21.349-15.168 29.493-25.415 6.916-8.545 12.772-18.351 14.698-29.317 2.103-10.026 1.529-20.314 1.602-30.485 0-20.856-8e-3 -41.719 0.028-62.571-8.842-0.02-17.685-0.048-26.527 4e-3 4e-3 20.611 0.128 41.221-0.1 61.832-0.193 7.048-0.393 14.112-1.252 21.12-0.987 8.71-5.997 16.312-11.487 22.887-5.908 6.671-12.37 12.932-19.615 18.138-5.089 2.818-10.889 3.946-16.505 5.242-4e-3 8.818-8e-3 17.637 0.024 26.459 10.343 0.286 21.031-1.941 29.641-7.894z"
     id="path4666"
     style="fill:#962900;fill-opacity:0.24758911" /><path
     d="m1321.3 356.26c-5.369-5.36-10.742-10.716-16.094-16.091-8.923-8.861-17.778-17.846-27.576-25.759-7.901-6.471-18.442-8.214-28.353-8.668-7.742-0.233-15.547-0.051-23.193 1.237-5.591 1.612-10.49 4.91-15.377 7.964-6.238-6.233-12.482-12.465-18.692-18.726 7.118-7.515 16.257-13.51 26.565-15.383 12.397-2.123 24.993-4.223 37.606-3.003 9.667 0.971 19.447 3.003 28.007 7.788 7.311 4.166 13.771 9.673 19.606 15.701 12.076 12.072 24.143 24.152 36.223 36.219 12.067 12.08 24.147 24.148 36.219 36.223 6.028 5.835 11.534 12.295 15.701 19.606 4.785 8.56 6.817 18.34 7.788 28.007 1.22 12.613-0.88 25.209-3.003 37.606-1.873 10.308-7.867 19.447-15.383 26.565-6.261-6.21-12.494-12.454-18.726-18.692 3.054-4.887 6.352-9.786 7.964-15.377 1.289-7.646 1.47-15.451 1.238-23.194-0.454-9.911-2.197-20.452-8.668-28.353-7.913-9.797-16.898-18.652-25.759-27.576-5.376-5.352-10.732-10.725-16.093-16.094z"
     id="path4668"
     style="fill:#962900;fill-opacity:0.24758911" /><path
     d="m1521.2 838.79c-6e-3 -7.587-0.018-15.173-2e-3 -22.758-0.044-12.575 0.048-25.19-1.284-37.714-1.011-10.163-7.233-18.849-13.92-26.178-5.31-5.639-10.958-11.03-17.275-15.525-5.094-2.814-10.889-3.946-16.505-5.242-4e-3 -8.818-0.012-17.641 0.024-26.459 10.348-0.281 21.048 1.943 29.662 7.907 10.267 7.265 20.659 14.686 28.715 24.468 6.149 7.522 11.628 15.875 14.297 25.311 2.224 8.116 2.898 16.577 2.762 24.966 3e-3 17.075-6e-3 34.149 3e-3 51.224-0.01 17.075 0 34.149-3e-3 51.224 0.136 8.389-0.538 16.85-2.762 24.966-2.669 9.436-8.148 17.789-14.297 25.311-8.056 9.782-18.447 17.203-28.715 24.468-8.614 5.964-19.314 8.188-29.662 7.907-0.036-8.818-0.028-17.641-0.024-26.459 5.615-1.296 11.411-2.428 16.505-5.242 6.318-4.495 11.965-9.886 17.275-15.525 6.687-7.329 12.908-16.015 13.92-26.178 1.333-12.523 1.24-25.138 1.284-37.713-0.016-7.586-5e-3 -15.172 2e-3 -22.759z"
     id="path4670"
     style="fill:#962900;fill-opacity:0.24758911" /><path
     d="m1321.3 1321.3c5.36-5.369 10.716-10.742 16.091-16.094 8.861-8.923 17.846-17.778 25.759-27.576 6.471-7.901 8.214-18.442 8.668-28.353 0.233-7.742 0.051-15.547-1.238-23.193-1.612-5.591-4.91-10.49-7.964-15.377 6.233-6.238 12.465-12.482 18.726-18.692 7.515 7.118 13.51 16.257 15.383 26.565 2.123 12.397 4.223 24.993 3.003 37.606-0.971 9.667-3.003 19.447-7.788 28.007-4.166 7.311-9.672 13.771-15.701 19.606-12.072 12.076-24.152 24.143-36.219 36.223-12.08 12.067-24.148 24.147-36.223 36.219-5.835 6.028-12.295 11.534-19.606 15.701-8.56 4.785-18.34 6.817-28.007 7.788-12.613 1.22-25.209-0.88-37.606-3.003-10.308-1.873-19.447-7.867-26.565-15.383 6.21-6.261 12.454-12.494 18.692-18.726 4.887 3.054 9.786 6.352 15.377 7.964 7.646 1.289 15.451 1.47 23.193 1.238 9.911-0.454 20.452-2.197 28.353-8.668 9.797-7.913 18.652-16.898 27.576-25.759 5.355-5.376 10.727-10.732 16.096-16.093z"
     id="path4672"
     style="fill:#962900;fill-opacity:0.24758911" /><path
     d="m838.79 1521.2c7.587-6e-3 15.173-0.018 22.758-2e-3 12.575-0.044 25.19 0.048 37.713-1.284 10.163-1.011 18.849-7.233 26.178-13.92 5.639-5.31 11.03-10.958 15.525-17.275 2.814-5.094 3.946-10.889 5.242-16.505 8.818-4e-3 17.641-0.012 26.459 0.024 0.281 10.348-1.943 21.048-7.907 29.662-7.265 10.267-14.686 20.659-24.468 28.715-7.522 6.149-15.875 11.628-25.311 14.297-8.116 2.224-16.577 2.898-24.966 2.762-17.075 3e-3 -34.149-6e-3 -51.224 3e-3 -17.075-0.01-34.149 0-51.224-3e-3 -8.389 0.136-16.85-0.538-24.966-2.762-9.436-2.669-17.789-8.148-25.311-14.297-9.782-8.056-17.203-18.447-24.468-28.715-5.964-8.614-8.188-19.314-7.907-29.662 8.818-0.036 17.641-0.028 26.459-0.024 1.296 5.615 2.428 11.411 5.242 16.505 4.495 6.318 9.886 11.965 15.525 17.275 7.329 6.687 16.015 12.908 26.178 13.92 12.523 1.333 25.138 1.24 37.714 1.284 7.586-0.016 15.172-5e-3 22.759 2e-3z"
     id="path4674"
     style="fill:#962900;fill-opacity:0.24758911" /><path
     d="m356.26 1321.3c5.369 5.36 10.742 10.716 16.094 16.091 8.923 8.861 17.778 17.846 27.576 25.759 7.901 6.471 18.442 8.214 28.353 8.668 7.743 0.233 15.547 0.051 23.194-1.238 5.591-1.612 10.49-4.91 15.377-7.964 6.238 6.233 12.482 12.465 18.692 18.726-7.118 7.515-16.257 13.51-26.565 15.383-12.397 2.123-24.993 4.223-37.606 3.003-9.667-0.971-19.447-3.003-28.007-7.788-7.311-4.166-13.771-9.672-19.606-15.701-12.076-12.072-24.143-24.152-36.223-36.219-12.067-12.08-24.147-24.148-36.219-36.223-6.028-5.835-11.534-12.295-15.701-19.606-4.785-8.56-6.817-18.34-7.788-28.007-1.22-12.613 0.88-25.209 3.003-37.606 1.873-10.308 7.867-19.447 15.383-26.565 6.261 6.21 12.494 12.454 18.726 18.692-3.054 4.887-6.352 9.786-7.964 15.377-1.289 7.646-1.47 15.451-1.237 23.193 0.454 9.911 2.197 20.452 8.668 28.353 7.913 9.797 16.898 18.652 25.759 27.576 5.375 5.355 10.731 10.727 16.091 16.096z"
     id="path4676"
     style="fill:#962900;fill-opacity:0.24758911" /><path
     d="m156.4 838.79c6e-3 7.587 0.018 15.173 2e-3 22.758 0.044 12.575-0.048 25.19 1.284 37.713 1.011 10.163 7.233 18.849 13.92 26.178 5.31 5.639 10.958 11.03 17.275 15.525 5.093 2.814 10.889 3.946 16.505 5.242 4e-3 8.818 0.012 17.641-0.024 26.459-10.348 0.281-21.048-1.943-29.662-7.907-10.267-7.265-20.659-14.686-28.715-24.468-6.149-7.522-11.628-15.875-14.297-25.311-2.224-8.116-2.898-16.577-2.761-24.966-3e-3 -17.075 6e-3 -34.149-3e-3 -51.224 0.01-17.075 1e-3 -34.149 3e-3 -51.224-0.136-8.389 0.538-16.85 2.761-24.966 2.669-9.436 8.148-17.789 14.297-25.311 8.056-9.782 18.447-17.203 28.715-24.468 8.614-5.964 19.314-8.188 29.662-7.907 0.036 8.818 0.028 17.641 0.024 26.459-5.615 1.296-11.411 2.428-16.505 5.242-6.318 4.495-11.965 9.886-17.275 15.525-6.687 7.329-12.908 16.015-13.92 26.178-1.333 12.523-1.24 25.138-1.284 37.714 0.016 7.586 4e-3 15.172-2e-3 22.759z"
     id="path4678"
     style="fill:#962900;fill-opacity:0.24758911" /><path
     d="m356.26 356.26c-5.36 5.369-10.716 10.742-16.091 16.094-8.861 8.923-17.846 17.778-25.759 27.576-6.471 7.901-8.214 18.442-8.668 28.353-0.233 7.743-0.051 15.547 1.237 23.194 1.612 5.591 4.91 10.49 7.964 15.377-6.233 6.238-12.465 12.482-18.726 18.692-7.515-7.118-13.51-16.257-15.383-26.565-2.123-12.397-4.223-24.993-3.003-37.606 0.971-9.667 3.003-19.447 7.788-28.007 4.166-7.311 9.673-13.771 15.701-19.606 12.072-12.076 24.152-24.143 36.219-36.223 12.08-12.067 24.148-24.147 36.223-36.219 5.835-6.028 12.295-11.534 19.606-15.701 8.56-4.785 18.34-6.817 28.007-7.788 12.613-1.22 25.209 0.88 37.606 3.003 10.308 1.873 19.447 7.867 26.565 15.383-6.21 6.261-12.454 12.494-18.692 18.726-4.887-3.054-9.786-6.352-15.377-7.964-7.646-1.289-15.451-1.47-23.194-1.237-9.911 0.454-20.452 2.197-28.353 8.668-9.797 7.913-18.652 16.898-27.576 25.759-5.352 5.375-10.725 10.731-16.094 16.091z"
     id="path4680"
     style="fill:#962900;fill-opacity:0.24758911" /><path
     d="m838.79 156.4c-7.587 6e-3 -15.173 0.018-22.758 2e-3 -12.575 0.044-25.19-0.048-37.714 1.284-10.163 1.011-18.849 7.233-26.178 13.92-5.639 5.31-11.03 10.958-15.525 17.275-2.814 5.093-3.946 10.889-5.242 16.505-8.818 4e-3 -17.641 0.012-26.459-0.024-0.281-10.348 1.943-21.048 7.907-29.662 7.265-10.267 14.686-20.659 24.468-28.715 7.522-6.149 15.875-11.628 25.311-14.297 8.116-2.224 16.577-2.898 24.966-2.761 17.075-3e-3 34.149 6e-3 51.224-3e-3 17.075 0.01 34.149 1e-3 51.224 3e-3 8.389-0.136 16.85 0.538 24.966 2.761 9.436 2.669 17.789 8.148 25.311 14.297 9.782 8.056 17.203 18.447 24.468 28.715 5.964 8.614 8.188 19.314 7.907 29.662-8.818 0.036-17.641 0.028-26.459 0.024-1.296-5.615-2.428-11.411-5.242-16.505-4.495-6.318-9.886-11.965-15.525-17.275-7.329-6.687-16.015-12.908-26.178-13.92-12.523-1.333-25.138-1.24-37.713-1.284-7.586 0.016-15.172 4e-3 -22.759-2e-3z"
     id="path4682"
     style="fill:#962900;fill-opacity:0.24758911" /><path
     d="m1052.9 321.93c6.263 6.172 12.514 12.35 18.777 18.522-15.047 15.081-30.108 30.146-45.174 45.206-4e-3 -21.303-2e-3 -42.605 0.023-63.909 8.792 0.065 17.581 0.117 26.374 0.181z"
     id="path4684"
     style="fill:#962900;fill-opacity:0.24758911" /><path
     d="m1355.6 624.7c0.064 8.793 0.116 17.582 0.18 26.374-21.304 0.025-42.606 0.027-63.909 0.023 15.06-15.066 30.125-30.128 45.206-45.174 6.173 6.262 12.351 12.514 18.523 18.777z"
     id="path4686"
     style="fill:#962900;fill-opacity:0.24758911" /><path
     d="m1355.6 1052.9c-6.172 6.263-12.35 12.514-18.522 18.777-15.081-15.047-30.146-30.108-45.206-45.174 21.302-4e-3 42.605-2e-3 63.909 0.023-0.065 8.792-0.117 17.581-0.181 26.374z"
     id="path4688"
     style="fill:#962900;fill-opacity:0.24758911" /><path
     d="m1052.9 1355.6c-8.793 0.064-17.582 0.116-26.375 0.18-0.025-21.304-0.027-42.606-0.023-63.909 15.066 15.06 30.128 30.125 45.174 45.206-6.262 6.173-12.513 12.351-18.776 18.523z"
     id="path4690"
     style="fill:#962900;fill-opacity:0.24758911" /><path
     d="m624.7 1355.6c-6.263-6.172-12.514-12.35-18.777-18.522 15.046-15.081 30.108-30.146 45.174-45.206 5e-3 21.302 2e-3 42.605-0.023 63.909-8.793-0.065-17.582-0.117-26.374-0.181z"
     id="path4692"
     style="fill:#962900;fill-opacity:0.24758911" /><path
     d="m321.93 1052.9c-0.064-8.793-0.116-17.582-0.18-26.375 21.304-0.025 42.606-0.027 63.909-0.023-15.06 15.066-30.125 30.128-45.206 45.174-6.173-6.262-12.35-12.513-18.523-18.776z"
     id="path4694"
     style="fill:#962900;fill-opacity:0.24758911" /><path
     d="m321.93 624.7c6.172-6.263 12.35-12.514 18.522-18.777 15.081 15.046 30.146 30.108 45.206 45.174-21.303 5e-3 -42.605 2e-3 -63.909-0.023 0.065-8.793 0.117-17.582 0.181-26.374z"
     id="path4696"
     style="fill:#962900;fill-opacity:0.24758911" /><path
     d="m624.7 321.93c8.793-0.064 17.582-0.116 26.374-0.18 0.025 21.304 0.027 42.606 0.023 63.909-15.066-15.06-30.128-30.125-45.174-45.206 6.262-6.173 12.514-12.35 18.777-18.523z"
     id="path4698"
     style="fill:#962900;fill-opacity:0.24758911" /><path
     d="m1078.5 409.71c29.307-29.262 58.603-58.534 87.893-87.819 6.278 6.187 12.545 12.38 18.823 18.567-29.301 29.369-58.665 58.676-88 88.006-6.24-6.249-12.512-12.47-18.716-18.754z"
     id="path4700"
     style="fill:#962900;fill-opacity:0.24758911" /><path
     d="m704.86 365.91c0.032-41.414 0.048-82.828 0.052-124.25 8.814-0.064 17.625-0.116 26.439-0.181 0.048 41.486 8e-3 82.973 4e-3 124.46-8.831-7e-3 -17.665 0.029-26.495-0.027z"
     id="path4702"
     style="fill:#962900;fill-opacity:0.24758911" /><path
     d="m409.71 599.11c-29.262-29.307-58.534-58.603-87.819-87.892 6.187-6.278 12.38-12.545 18.567-18.823 29.369 29.301 58.676 58.665 88.006 88-6.249 6.238-12.47 12.511-18.754 18.715z"
     id="path4704"
     style="fill:#962900;fill-opacity:0.24758911" /><path
     d="m365.91 972.72c-41.414-0.032-82.828-0.048-124.25-0.052-0.064-8.814-0.116-17.625-0.181-26.439 41.486-0.048 82.973-8e-3 124.46-4e-3 -7e-3 8.83 0.029 17.665-0.027 26.495z"
     id="path4706"
     style="fill:#962900;fill-opacity:0.24758911" /><path
     d="m599.11 1267.9c-29.307 29.262-58.603 58.534-87.892 87.819-6.278-6.187-12.545-12.38-18.823-18.567 29.301-29.369 58.665-58.676 88-88.006 6.238 6.249 12.511 12.471 18.715 18.754z"
     id="path4708"
     style="fill:#962900;fill-opacity:0.24758911" /><path
     d="m972.72 1311.7c-0.032 41.414-0.048 82.828-0.052 124.25-8.814 0.064-17.625 0.116-26.439 0.181-0.048-41.486-8e-3 -82.973-4e-3 -124.46 8.83 7e-3 17.665-0.03 26.495 0.027z"
     id="path4710"
     style="fill:#962900;fill-opacity:0.24758911" /><path
     d="m1267.9 1078.5c29.262 29.307 58.534 58.603 87.819 87.893-6.187 6.278-12.38 12.545-18.567 18.823-29.369-29.301-58.676-58.665-88.006-88 6.249-6.24 12.471-12.512 18.754-18.716z"
     id="path4712"
     style="fill:#962900;fill-opacity:0.24758911" /><path
     d="m1311.7 704.86c41.414 0.032 82.828 0.048 124.25 0.052 0.064 8.814 0.116 17.625 0.181 26.439-41.486 0.048-82.973 8e-3 -124.46 4e-3 7e-3 -8.831-0.03-17.665 0.027-26.495z"
     id="path4714"
     style="fill:#962900;fill-opacity:0.24758911" /><path
     d="m1267.9 599.11c29.262-29.307 58.534-58.603 87.819-87.892-6.187-6.278-12.38-12.545-18.567-18.823-29.369 29.301-58.676 58.665-88.006 88 6.249 6.238 12.471 12.511 18.754 18.715z"
     id="path4716"
     style="fill:#962900;fill-opacity:0.24758911" /><path
     d="m972.72 365.91c-0.032-41.414-0.048-82.828-0.052-124.25-8.814-0.064-17.625-0.116-26.439-0.181-0.048 41.486-8e-3 82.973-4e-3 124.46 8.83-7e-3 17.665 0.029 26.495-0.027z"
     id="path4718"
     style="fill:#962900;fill-opacity:0.24758911" /><path
     d="m599.11 409.71c-29.307-29.262-58.603-58.534-87.892-87.819-6.278 6.187-12.545 12.38-18.823 18.567 29.301 29.369 58.665 58.676 88 88.006 6.238-6.249 12.511-12.47 18.715-18.754z"
     id="path4720"
     style="fill:#962900;fill-opacity:0.24758911" /><path
     d="m365.91 704.86c-41.414 0.032-82.828 0.048-124.25 0.052-0.064 8.814-0.116 17.625-0.181 26.439 41.486 0.048 82.973 8e-3 124.46 4e-3 -7e-3 -8.831 0.029-17.665-0.027-26.495z"
     id="path4722"
     style="fill:#962900;fill-opacity:0.24758911" /><path
     d="m409.71 1078.5c-29.262 29.307-58.534 58.603-87.819 87.893 6.187 6.278 12.38 12.545 18.567 18.823 29.369-29.301 58.676-58.665 88.006-88-6.249-6.24-12.47-12.512-18.754-18.716z"
     id="path4724"
     style="fill:#962900;fill-opacity:0.24758911" /><path
     d="m704.86 1311.7c0.032 41.414 0.048 82.828 0.052 124.25 8.814 0.064 17.625 0.116 26.439 0.181 0.048-41.486 8e-3 -82.973 4e-3 -124.46-8.831 7e-3 -17.665-0.03-26.495 0.027z"
     id="path4726"
     style="fill:#962900;fill-opacity:0.24758911" /><path
     d="m1078.5 1267.9c29.307 29.262 58.603 58.534 87.893 87.819 6.278-6.187 12.545-12.38 18.823-18.567-29.301-29.369-58.665-58.676-88-88.006-6.24 6.249-12.512 12.471-18.716 18.754z"
     id="path4728"
     style="fill:#962900;fill-opacity:0.24758911" /><path
     d="m1311.7 972.72c41.414-0.032 82.828-0.048 124.25-0.052 0.064-8.814 0.116-17.625 0.181-26.439-41.486-0.048-82.973-8e-3 -124.46-4e-3 7e-3 8.83-0.03 17.665 0.027 26.495z"
     id="path4730"
     style="fill:#962900;fill-opacity:0.24758911" /><path
     d="m1192 409.71c29.307-29.262 58.603-58.534 87.893-87.819 6.278 6.187 12.545 12.38 18.823 18.567-29.301 29.369-58.659 58.676-88 88.006-6.239-6.249-12.511-12.47-18.716-18.754z"
     id="path4732"
     style="fill:#962900;fill-opacity:0.24758911" /><path
     d="m785.13 285.63c0.032-41.414 0.048-82.828 0.052-124.25 8.814-0.064 17.625-0.116 26.439-0.181 0.048 41.486 0.012 82.969 4e-3 124.46-8.83-7e-3 -17.664 0.029-26.495-0.027z"
     id="path4734"
     style="fill:#962900;fill-opacity:0.24758911" /><path
     d="m409.71 485.58c-29.262-29.307-58.534-58.603-87.819-87.893 6.187-6.278 12.38-12.545 18.567-18.823 29.369 29.301 58.676 58.659 88.006 88-6.249 6.239-12.47 12.512-18.754 18.716z"
     id="path4736"
     style="fill:#962900;fill-opacity:0.24758911" /><path
     d="m285.63 892.44c-41.414-0.032-82.828-0.048-124.25-0.052-0.064-8.814-0.116-17.625-0.181-26.439 41.486-0.048 82.969-0.012 124.46-4e-3 -7e-3 8.831 0.029 17.665-0.027 26.495z"
     id="path4738"
     style="fill:#962900;fill-opacity:0.24758911" /><path
     d="m485.58 1267.9c-29.307 29.262-58.603 58.534-87.893 87.819-6.278-6.187-12.545-12.38-18.823-18.567 29.301-29.369 58.659-58.676 88-88.006 6.239 6.249 12.512 12.471 18.716 18.754z"
     id="path4740"
     style="fill:#962900;fill-opacity:0.24758911" /><path
     d="m892.44 1391.9c-0.032 41.414-0.048 82.828-0.052 124.25-8.814 0.064-17.625 0.116-26.439 0.181-0.048-41.486-0.012-82.969-4e-3 -124.46 8.831 7e-3 17.665-0.029 26.495 0.027z"
     id="path4742"
     style="fill:#962900;fill-opacity:0.24758911" /><path
     d="m1267.9 1192c29.262 29.307 58.534 58.603 87.819 87.893-6.187 6.278-12.38 12.545-18.567 18.823-29.369-29.301-58.676-58.659-88.006-88 6.249-6.239 12.471-12.511 18.754-18.716z"
     id="path4744"
     style="fill:#962900;fill-opacity:0.24758911" /><path
     d="m1391.9 785.13c41.414 0.032 82.828 0.048 124.25 0.052 0.064 8.814 0.116 17.625 0.181 26.439-41.486 0.048-82.969 0.012-124.46 4e-3 7e-3 -8.83-0.029-17.664 0.027-26.495z"
     id="path4746"
     style="fill:#962900;fill-opacity:0.24758911" /><path
     d="m1267.9 485.58c29.262-29.307 58.534-58.603 87.819-87.893-6.187-6.278-12.38-12.545-18.567-18.823-29.369 29.301-58.676 58.659-88.006 88 6.249 6.239 12.471 12.512 18.754 18.716z"
     id="path4748"
     style="fill:#962900;fill-opacity:0.24758911" /><path
     d="m892.44 285.63c-0.032-41.414-0.048-82.828-0.052-124.25-8.814-0.064-17.625-0.116-26.439-0.181-0.048 41.486-0.012 82.969-4e-3 124.46 8.831-7e-3 17.665 0.029 26.495-0.027z"
     id="path4750"
     style="fill:#962900;fill-opacity:0.24758911" /><path
     d="m485.58 409.71c-29.307-29.262-58.603-58.534-87.893-87.819-6.278 6.187-12.545 12.38-18.823 18.567 29.301 29.369 58.659 58.676 88 88.006 6.239-6.249 12.512-12.47 18.716-18.754z"
     id="path4752"
     style="fill:#962900;fill-opacity:0.24758911" /><path
     d="m285.63 785.13c-41.414 0.032-82.828 0.048-124.25 0.052-0.064 8.814-0.116 17.625-0.181 26.439 41.486 0.048 82.969 0.012 124.46 4e-3 -7e-3 -8.83 0.029-17.664-0.027-26.495z"
     id="path4754"
     style="fill:#962900;fill-opacity:0.24758911" /><path
     d="m409.71 1192c-29.262 29.307-58.534 58.603-87.819 87.893 6.187 6.278 12.38 12.545 18.567 18.823 29.369-29.301 58.676-58.659 88.006-88-6.249-6.239-12.47-12.511-18.754-18.716z"
     id="path4756"
     style="fill:#962900;fill-opacity:0.24758911" /><path
     d="m785.13 1391.9c0.032 41.414 0.048 82.828 0.052 124.25 8.814 0.064 17.625 0.116 26.439 0.181 0.048-41.486 0.012-82.969 4e-3 -124.46-8.83 7e-3 -17.664-0.029-26.495 0.027z"
     id="path4758"
     style="fill:#962900;fill-opacity:0.24758911" /><path
     d="m1192 1267.9c29.307 29.262 58.603 58.534 87.893 87.819 6.278-6.187 12.545-12.38 18.823-18.567-29.301-29.369-58.659-58.676-88-88.006-6.239 6.249-12.511 12.471-18.716 18.754z"
     id="path4760"
     style="fill:#962900;fill-opacity:0.24758911" /><path
     d="m1391.9 892.44c41.414-0.032 82.828-0.048 124.25-0.052 0.064-8.814 0.116-17.625 0.181-26.439-41.486-0.048-82.969-0.012-124.46-4e-3 7e-3 8.831-0.029 17.665 0.027 26.495z"
     id="path4762"
     style="fill:#962900;fill-opacity:0.24758911" /><path
     d="m999.4 451.03c5.16 5.161 10.32 10.322 15.481 15.482-6.255 6.233-12.477 12.499-18.749 18.715-2.567-2.571-5.134-5.142-7.702-7.713-3.633 2e-3 -7.266 5e-3 -10.9 8e-3 -0.04-8.83-8e-3 -17.661-0.024-26.491 7.298 1e-3 14.596 0 21.894-1e-3z"
     id="path4764"
     style="fill:#962900;fill-opacity:0.24758911" /><path
     d="m1226.5 678.17c-1e-3 7.298-2e-3 14.596-1e-3 21.894-8.83-0.016-17.661 0.016-26.491-0.024 3e-3 -3.633 6e-3 -7.266 8e-3 -10.9-2.571-2.568-5.141-5.135-7.713-7.702 6.216-6.272 12.482-12.494 18.715-18.749 5.16 5.162 10.321 10.322 15.482 15.481z"
     id="path4766"
     style="fill:#962900;fill-opacity:0.24758911" /><path
     d="m1226.5 999.4c-5.161 5.16-10.322 10.32-15.482 15.481-6.233-6.255-12.499-12.477-18.715-18.749 2.571-2.567 5.142-5.134 7.713-7.702-2e-3 -3.633-5e-3 -7.266-8e-3 -10.9 8.83-0.04 17.661-8e-3 26.491-0.024 0 7.298 0 14.596 1e-3 21.894z"
     id="path4768"
     style="fill:#962900;fill-opacity:0.24758911" /><path
     d="m999.4 1226.5c-7.298-1e-3 -14.596-2e-3 -21.894-1e-3 0.016-8.83-0.016-17.661 0.024-26.491 3.633 3e-3 7.266 6e-3 10.9 8e-3 2.568-2.571 5.135-5.141 7.702-7.713 6.272 6.216 12.494 12.482 18.749 18.715-5.161 5.16-10.321 10.321-15.481 15.482z"
     id="path4770"
     style="fill:#962900;fill-opacity:0.24758911" /><path
     d="m678.17 1226.5c-5.16-5.161-10.32-10.322-15.481-15.482 6.255-6.233 12.477-12.499 18.749-18.715 2.567 2.571 5.134 5.142 7.702 7.713 3.633-2e-3 7.266-5e-3 10.9-8e-3 0.04 8.83 8e-3 17.661 0.024 26.491-7.298 0-14.596 0-21.894 1e-3z"
     id="path4772"
     style="fill:#962900;fill-opacity:0.24758911" /><path
     d="m451.03 999.4c1e-3 -7.298 2e-3 -14.596 1e-3 -21.894 8.83 0.016 17.661-0.016 26.491 0.024-3e-3 3.633-6e-3 7.266-8e-3 10.9 2.57 2.568 5.141 5.135 7.713 7.702-6.216 6.272-12.482 12.494-18.715 18.749-5.16-5.161-10.321-10.321-15.482-15.481z"
     id="path4774"
     style="fill:#962900;fill-opacity:0.24758911" /><path
     d="m451.03 678.17c5.161-5.16 10.322-10.32 15.482-15.481 6.233 6.255 12.499 12.477 18.715 18.749-2.571 2.567-5.142 5.134-7.713 7.702 2e-3 3.633 5e-3 7.266 8e-3 10.9-8.83 0.04-17.661 8e-3 -26.491 0.024 1e-3 -7.298 0-14.596-1e-3 -21.894z"
     id="path4776"
     style="fill:#962900;fill-opacity:0.24758911" /><path
     d="m678.17 451.03c7.298 1e-3 14.596 2e-3 21.894 1e-3 -0.016 8.83 0.016 17.661-0.024 26.491-3.633-3e-3 -7.266-6e-3 -10.9-8e-3 -2.568 2.57-5.135 5.141-7.702 7.713-6.272-6.216-12.494-12.482-18.749-18.715 5.162-5.16 10.322-10.321 15.481-15.482z"
     id="path4778"
     style="fill:#962900;fill-opacity:0.24758911" /><path
     d="m1021.7 397.26c6.221-6.267 12.494-12.488 18.715-18.755 29.352 29.313 58.659 58.671 87.995 88-6.255 6.233-12.477 12.499-18.749 18.715-29.296-29.346-58.648-58.636-87.961-87.96z"
     id="path4780"
     style="fill:#962900;fill-opacity:0.24758911" /><path
     d="m655.92 397.24c-0.032-8.83 4e-3 -17.665-0.028-26.495 41.482-0.028 82.965 8e-3 124.45 4e-3 -0.016 8.83 0.016 17.661-0.024 26.491-41.467-0.036-82.933 8e-3 -124.4 0z"
     id="path4782"
     style="fill:#962900;fill-opacity:0.24758911" /><path
     d="m397.26 655.87c-6.267-6.221-12.488-12.494-18.755-18.715 29.313-29.352 58.671-58.659 88-87.995 6.233 6.255 12.499 12.477 18.715 18.749-29.346 29.296-58.636 58.649-87.96 87.961z"
     id="path4784"
     style="fill:#962900;fill-opacity:0.24758911" /><path
     d="m397.24 1021.7c-8.83 0.032-17.665-4e-3 -26.495 0.028-0.028-41.482 8e-3 -82.965 4e-3 -124.45 8.83 0.016 17.661-0.016 26.491 0.024-0.036 41.466 8e-3 82.932 0 124.4z"
     id="path4786"
     style="fill:#962900;fill-opacity:0.24758911" /><path
     d="m655.87 1280.3c-6.221 6.267-12.494 12.488-18.715 18.755-29.352-29.313-58.659-58.671-87.995-88 6.255-6.233 12.477-12.499 18.749-18.715 29.296 29.346 58.649 58.636 87.961 87.96z"
     id="path4788"
     style="fill:#962900;fill-opacity:0.24758911" /><path
     d="m1021.7 1280.3c0.032 8.83-4e-3 17.665 0.028 26.495-41.482 0.028-82.965-8e-3 -124.45-4e-3 0.016-8.83-0.016-17.661 0.024-26.491 41.466 0.036 82.932-8e-3 124.4 0z"
     id="path4790"
     style="fill:#962900;fill-opacity:0.24758911" /><path
     d="m1280.3 1021.7c6.267 6.221 12.488 12.494 18.755 18.715-29.313 29.352-58.671 58.659-88 87.995-6.233-6.255-12.499-12.477-18.715-18.749 29.346-29.296 58.636-58.648 87.96-87.961z"
     id="path4792"
     style="fill:#962900;fill-opacity:0.24758911" /><path
     d="m1280.3 655.92c8.83-0.032 17.665 4e-3 26.495-0.028 0.028 41.482-8e-3 82.965-4e-3 124.45-8.83-0.016-17.661 0.016-26.491-0.024 0.036-41.467-8e-3 -82.933 0-124.4z"
     id="path4794"
     style="fill:#962900;fill-opacity:0.24758911" /><path
     d="m1280.3 655.87c6.267-6.221 12.488-12.494 18.755-18.715-29.313-29.352-58.671-58.659-88-87.995-6.233 6.255-12.499 12.477-18.715 18.749 29.346 29.296 58.636 58.649 87.96 87.961z"
     id="path4796"
     style="fill:#962900;fill-opacity:0.24758911" /><path
     d="m1021.7 397.24c0.032-8.83-4e-3 -17.665 0.028-26.495-41.482-0.028-82.965 8e-3 -124.45 4e-3 0.016 8.83-0.016 17.661 0.024 26.491 41.466-0.036 82.932 8e-3 124.4 0z"
     id="path4798"
     style="fill:#962900;fill-opacity:0.24758911" /><path
     d="m655.87 397.26c-6.221-6.267-12.494-12.488-18.715-18.755-29.352 29.313-58.659 58.671-87.995 88 6.255 6.233 12.477 12.499 18.749 18.715 29.296-29.346 58.649-58.636 87.961-87.96z"
     id="path4800"
     style="fill:#962900;fill-opacity:0.24758911" /><path
     d="m397.24 655.92c-8.83-0.032-17.665 4e-3 -26.495-0.028-0.028 41.482 8e-3 82.965 4e-3 124.45 8.83-0.016 17.661 0.016 26.491-0.024-0.036-41.467 8e-3 -82.933 0-124.4z"
     id="path4802"
     style="fill:#962900;fill-opacity:0.24758911" /><path
     d="m397.26 1021.7c-6.267 6.221-12.488 12.494-18.755 18.715 29.313 29.352 58.671 58.659 88 87.995 6.233-6.255 12.499-12.477 18.715-18.749-29.346-29.296-58.636-58.648-87.96-87.961z"
     id="path4804"
     style="fill:#962900;fill-opacity:0.24758911" /><path
     d="m655.92 1280.3c-0.032 8.83 4e-3 17.665-0.028 26.495 41.482 0.028 82.965-8e-3 124.45-4e-3 -0.016-8.83 0.016-17.661-0.024-26.491-41.467 0.036-82.933-8e-3 -124.4 0z"
     id="path4806"
     style="fill:#962900;fill-opacity:0.24758911" /><path
     d="m1021.7 1280.3c6.221 6.267 12.494 12.488 18.715 18.755 29.352-29.313 58.659-58.671 87.995-88-6.255-6.233-12.477-12.499-18.749-18.715-29.296 29.346-58.648 58.636-87.961 87.96z"
     id="path4808"
     style="fill:#962900;fill-opacity:0.24758911" /><path
     d="m1280.3 1021.7c8.83 0.032 17.665-4e-3 26.495 0.028 0.028-41.482-8e-3 -82.965-4e-3 -124.45-8.83 0.016-17.661-0.016-26.491 0.024 0.036 41.466-8e-3 82.932 0 124.4z"
     id="path4810"
     style="fill:#962900;fill-opacity:0.24758911" /><path
     d="m1207.8 469.8c-24.173-24.188-48.371-48.349-72.55-72.532 6.221-6.267 12.494-12.488 18.715-18.755 24.203 24.171 48.376 48.372 72.559 72.563 24.191 24.183 48.392 48.355 72.563 72.559-6.267 6.221-12.488 12.494-18.755 18.715-24.183-24.179-48.344-48.378-72.532-72.55z"
     id="path4812"
     style="fill:#962900;fill-opacity:0.24758911" /><path
     d="m1360.6 838.79c0.011-34.196-0.016-68.391-0.013-102.59 8.83-0.032 17.665 4e-3 26.495-0.028 0.023 34.206 3e-3 68.411-3e-3 102.62 6e-3 34.206 0.026 68.411 3e-3 102.62-8.83-0.032-17.665 4e-3 -26.495-0.028-3e-3 -34.198 0.024-68.393 0.013-102.59z"
     id="path4814"
     style="fill:#962900;fill-opacity:0.24758911" /><path
     d="m1207.8 1207.8c24.188-24.173 48.349-48.371 72.532-72.55 6.267 6.221 12.488 12.494 18.755 18.715-24.171 24.203-48.372 48.376-72.563 72.559-24.183 24.191-48.355 48.392-72.559 72.563-6.221-6.267-12.494-12.488-18.715-18.755 24.179-24.183 48.377-48.344 72.55-72.532z"
     id="path4816"
     style="fill:#962900;fill-opacity:0.24758911" /><path
     d="m838.79 1360.6c34.196 0.011 68.391-0.016 102.59-0.013 0.032 8.83-4e-3 17.665 0.028 26.495-34.206 0.023-68.411 3e-3 -102.62-3e-3 -34.206 6e-3 -68.411 0.026-102.62 3e-3 0.032-8.83-4e-3 -17.665 0.028-26.495 34.198-3e-3 68.392 0.024 102.59 0.013z"
     id="path4818"
     style="fill:#962900;fill-opacity:0.24758911" /><path
     d="m469.8 1207.8c24.173 24.188 48.371 48.349 72.55 72.532-6.221 6.267-12.494 12.488-18.715 18.755-24.203-24.171-48.376-48.372-72.559-72.563-24.191-24.183-48.392-48.355-72.563-72.559 6.267-6.221 12.488-12.494 18.755-18.715 24.183 24.179 48.343 48.377 72.532 72.55z"
     id="path4820"
     style="fill:#962900;fill-opacity:0.24758911" /><path
     d="m316.96 838.79c-0.011 34.196 0.016 68.391 0.013 102.59-8.83 0.032-17.665-4e-3 -26.495 0.028-0.023-34.206-3e-3 -68.411 3e-3 -102.62-6e-3 -34.206-0.026-68.411-3e-3 -102.62 8.83 0.032 17.665-4e-3 26.495 0.028 3e-3 34.198-0.024 68.392-0.013 102.59z"
     id="path4822"
     style="fill:#962900;fill-opacity:0.24758911" /><path
     d="m469.8 469.8c-24.188 24.173-48.349 48.371-72.532 72.55-6.267-6.221-12.488-12.494-18.755-18.715 24.171-24.203 48.372-48.376 72.563-72.559 24.183-24.191 48.355-48.392 72.559-72.563 6.221 6.267 12.494 12.488 18.715 18.755-24.179 24.183-48.378 48.343-72.55 72.532z"
     id="path4824"
     style="fill:#962900;fill-opacity:0.24758911" /><path
     d="m838.79 316.96c-34.196-0.011-68.391 0.016-102.59 0.013-0.032-8.83 4e-3 -17.665-0.028-26.495 34.206-0.023 68.411-3e-3 102.62 3e-3 34.206-6e-3 68.411-0.026 102.62-3e-3 -0.032 8.83 4e-3 17.665-0.028 26.495-34.198 3e-3 -68.393-0.024-102.59-0.013z"
     id="path4826"
     style="fill:#962900;fill-opacity:0.24758911" /><path
     d="m1264.5 413.04c-5.26-5.258-10.52-10.517-15.779-15.777 6.221-6.267 12.494-12.488 18.715-18.755 5.269 5.263 10.536 10.527 15.803 15.792 5.265 5.267 10.529 10.535 15.792 15.803-6.267 6.221-12.488 12.494-18.755 18.715-5.259-5.258-10.517-10.518-15.776-15.778z"
     id="path4828"
     style="fill:#962900;fill-opacity:0.24758911" /><path
     d="m1440.9 838.79c-1e-3 -7.438-2e-3 -14.875-1e-3 -22.313 8.83-0.032 17.665 4e-3 26.495-0.028 4e-3 7.447 7e-3 14.894 8e-3 22.341-1e-3 7.447-4e-3 14.894-8e-3 22.341-8.83-0.032-17.665 4e-3 -26.495-0.028-1e-3 -7.438-1e-3 -14.876 1e-3 -22.313z"
     id="path4830"
     style="fill:#962900;fill-opacity:0.24758911" /><path
     d="m1264.5 1264.5c5.258-5.26 10.517-10.52 15.776-15.779 6.267 6.221 12.488 12.494 18.755 18.715-5.263 5.269-10.527 10.536-15.792 15.803-5.267 5.265-10.535 10.529-15.803 15.792-6.221-6.267-12.494-12.488-18.715-18.755 5.26-5.259 10.519-10.517 15.779-15.776z"
     id="path4832"
     style="fill:#962900;fill-opacity:0.24758911" /><path
     d="m838.79 1440.9c7.438-1e-3 14.875-2e-3 22.313-1e-3 0.032 8.83-4e-3 17.665 0.028 26.495-7.447 4e-3 -14.894 7e-3 -22.341 8e-3 -7.447-1e-3 -14.894-4e-3 -22.341-8e-3 0.032-8.83-4e-3 -17.665 0.028-26.495 7.438-1e-3 14.875-1e-3 22.313 1e-3z"
     id="path4834"
     style="fill:#962900;fill-opacity:0.24758911" /><path
     d="m413.04 1264.5c5.26 5.258 10.52 10.517 15.779 15.776-6.221 6.267-12.494 12.488-18.715 18.755-5.269-5.263-10.536-10.527-15.803-15.792-5.265-5.267-10.529-10.535-15.792-15.803 6.267-6.221 12.488-12.494 18.755-18.715 5.259 5.26 10.518 10.519 15.776 15.779z"
     id="path4836"
     style="fill:#962900;fill-opacity:0.24758911" /><path
     d="m236.69 838.79c1e-3 7.438 2e-3 14.875 1e-3 22.313-8.83 0.032-17.665-4e-3 -26.495 0.028-4e-3 -7.447-7e-3 -14.894-8e-3 -22.341 1e-3 -7.447 4e-3 -14.894 8e-3 -22.341 8.83 0.032 17.665-4e-3 26.495 0.028 1e-3 7.438 0 14.875-1e-3 22.313z"
     id="path4838"
     style="fill:#962900;fill-opacity:0.24758911" /><path
     d="m413.04 413.04c-5.258 5.26-10.517 10.52-15.777 15.779-6.267-6.221-12.488-12.494-18.755-18.715 5.263-5.269 10.527-10.536 15.792-15.803 5.267-5.265 10.535-10.529 15.803-15.792 6.221 6.267 12.494 12.488 18.715 18.755-5.258 5.259-10.518 10.518-15.778 15.776z"
     id="path4840"
     style="fill:#962900;fill-opacity:0.24758911" /><path
     d="m838.79 236.69c-7.438 1e-3 -14.875 2e-3 -22.313 1e-3 -0.032-8.83 4e-3 -17.665-0.028-26.495 7.447-4e-3 14.894-7e-3 22.341-8e-3 7.447 1e-3 14.894 4e-3 22.341 8e-3 -0.032 8.83 4e-3 17.665-0.028 26.495-7.438 1e-3 -14.876 0-22.313-1e-3z"
     id="path4842"
     style="fill:#962900;fill-opacity:0.24758911" /><path
     d="m972.7 515.48c26.754-26.713 53.466-53.464 80.197-80.206 6.25 6.233 12.465 12.505 18.749 18.709-29.307 29.364-58.659 58.676-88 88.006-5.163-5.173-10.35-10.326-15.502-15.511-7.309 0.024-14.621 0-21.929 7e-3 -8e-3 -41.486-0.036-82.969 4e-3 -124.46 8.83 0.056 17.661 0.016 26.487 0.028-8e-3 37.811-0.035 75.615-6e-3 113.42z"
     id="path4844"
     style="fill:#962900;fill-opacity:0.24758911" /><path
     d="m1162.1 704.87c37.807 0.029 75.611 1e-3 113.42-6e-3 0.012 8.826-0.028 17.657 0.028 26.487-41.486 0.04-82.969 0.012-124.46 4e-3 7e-3 -7.308-0.017-14.62 6e-3 -21.929-5.185-5.152-10.338-10.338-15.511-15.502 29.33-29.341 58.642-58.693 88.006-88 6.204 6.284 12.477 12.499 18.709 18.749-26.741 26.731-53.492 53.443-80.205 80.197z"
     id="path4846"
     style="fill:#962900;fill-opacity:0.24758911" /><path
     d="m1162.1 972.7c26.713 26.754 53.464 53.466 80.206 80.197-6.233 6.25-12.505 12.465-18.709 18.749-29.364-29.307-58.676-58.659-88.006-88 5.173-5.163 10.326-10.35 15.511-15.502-0.023-7.309 0-14.621-6e-3 -21.929 41.486-8e-3 82.969-0.036 124.46 4e-3 -0.056 8.83-0.016 17.661-0.028 26.487-37.812-8e-3 -75.617-0.035-113.42-6e-3z"
     id="path4848"
     style="fill:#962900;fill-opacity:0.24758911" /><path
     d="m972.7 1162.1c-0.029 37.807-1e-3 75.611 6e-3 113.42-8.826 0.012-17.657-0.028-26.487 0.028-0.04-41.486-0.012-82.969-4e-3 -124.46 7.308 7e-3 14.62-0.017 21.929 6e-3 5.152-5.185 10.338-10.338 15.502-15.511 29.341 29.33 58.693 58.642 88 88.006-6.284 6.204-12.499 12.477-18.749 18.709-26.731-26.741-53.444-53.492-80.197-80.205z"
     id="path4850"
     style="fill:#962900;fill-opacity:0.24758911" /><path
     d="m704.87 1162.1c-26.754 26.713-53.466 53.464-80.197 80.206-6.25-6.233-12.465-12.505-18.749-18.709 29.307-29.364 58.659-58.676 88-88.006 5.163 5.173 10.35 10.326 15.502 15.511 7.309-0.023 14.621 0 21.929-6e-3 8e-3 41.486 0.036 82.969-4e-3 124.46-8.83-0.056-17.661-0.016-26.487-0.028 7e-3 -37.812 0.034-75.617 6e-3 -113.42z"
     id="path4852"
     style="fill:#962900;fill-opacity:0.24758911" /><path
     d="m515.48 972.7c-37.807-0.029-75.611-1e-3 -113.42 6e-3 -0.012-8.826 0.028-17.657-0.028-26.487 41.486-0.04 82.969-0.012 124.46-4e-3 -7e-3 7.308 0.017 14.62-7e-3 21.929 5.185 5.152 10.338 10.338 15.511 15.502-29.33 29.341-58.642 58.693-88.006 88-6.204-6.284-12.477-12.499-18.709-18.749 26.742-26.731 53.493-53.444 80.206-80.197z"
     id="path4854"
     style="fill:#962900;fill-opacity:0.24758911" /><path
     d="m515.48 704.87c-26.713-26.754-53.464-53.466-80.206-80.197 6.233-6.25 12.505-12.465 18.709-18.749 29.364 29.307 58.676 58.659 88.006 88-5.173 5.163-10.326 10.35-15.511 15.502 0.024 7.309 0 14.621 7e-3 21.929-41.486 8e-3 -82.969 0.036-124.46-4e-3 0.056-8.83 0.016-17.661 0.028-26.487 37.811 7e-3 75.615 0.034 113.42 6e-3z"
     id="path4856"
     style="fill:#962900;fill-opacity:0.24758911" /><path
     d="m704.87 515.48c0.029-37.807 1e-3 -75.611-6e-3 -113.42 8.826-0.012 17.657 0.028 26.487-0.028 0.04 41.486 0.012 82.969 4e-3 124.46-7.308-7e-3 -14.62 0.017-21.929-7e-3 -5.152 5.185-10.338 10.338-15.502 15.511-29.341-29.33-58.693-58.642-88-88.006 6.284-6.204 12.499-12.477 18.749-18.709 26.731 26.742 53.443 53.493 80.197 80.206z"
     id="path4858"
     style="fill:#962900;fill-opacity:0.24758911" /><path
     d="m1096.9 580.7c-1.165-2.778-2.038-5.677-2.551-8.678-2.185-12.59-4.286-25.419-2.912-38.23 1.146-10.774 3.735-21.746 9.928-30.817 5.801-9.111 13.89-16.371 21.411-24.005 14.571-14.554 29.114-29.131 43.679-43.697 6.25 6.233 12.465 12.505 18.749 18.709-15.877 16.098-32.179 31.77-47.704 48.209-3.463 3.746-6.931 7.515-10.013 11.585-5.676 7.152-7.442 16.49-8.1 25.373-0.321 6.257-0.314 12.557 0.259 18.802 6.246 0.573 12.546 0.58 18.802 0.259 8.884-0.658 18.221-2.424 25.373-8.1 4.07-3.082 7.839-6.551 11.585-10.013 16.439-15.525 32.111-31.827 48.209-47.704 6.204 6.284 12.477 12.499 18.709 18.749-14.565 14.565-29.142 29.108-43.696 43.679-7.635 7.521-14.895 15.61-24.005 21.411-9.071 6.193-20.043 8.781-30.817 9.928-12.812 1.374-25.64-0.727-38.23-2.912-2.999-0.51-5.898-1.383-8.676-2.548z"
     id="path4860"
     style="fill:#962900;fill-opacity:0.24758911" /><path
     d="m1203.8 838.79c1.141-2.788 2.573-5.455 4.333-7.94 7.357-10.448 14.943-21.004 24.974-29.092 8.429-6.807 18.018-12.736 28.811-14.771 10.544-2.34 21.397-1.754 32.114-1.834 20.595 0.012 41.185-0.012 61.784-0.012 0.012 8.826-0.028 17.657 0.028 26.487-22.61 0.157-45.219-0.289-67.821 0.357-5.098 0.201-10.215 0.413-15.272 1.112-9.071 1.044-16.922 6.398-23.669 12.214-4.651 4.197-9.101 8.657-13.112 13.479 4.011 4.822 8.461 9.281 13.112 13.479 6.747 5.816 14.598 11.17 23.669 12.214 5.057 0.698 10.175 0.911 15.272 1.112 22.602 0.646 45.211 0.201 67.821 0.357-0.056 8.83-0.016 17.661-0.028 26.487-20.599 0-41.189-0.024-61.784-0.012-10.717-0.08-21.57 0.506-32.114-1.834-10.793-2.035-20.382-7.963-28.811-14.771-10.031-8.088-17.617-18.644-24.974-29.092-1.761-2.485-3.193-5.152-4.333-7.94z"
     id="path4862"
     style="fill:#962900;fill-opacity:0.24758911" /><path
     d="m1096.9 1096.9c2.778-1.165 5.677-2.038 8.678-2.551 12.59-2.185 25.419-4.286 38.23-2.912 10.774 1.146 21.746 3.735 30.817 9.928 9.11 5.801 16.37 13.89 24.005 21.411 14.554 14.571 29.131 29.114 43.696 43.679-6.233 6.25-12.505 12.465-18.709 18.749-16.098-15.877-31.77-32.179-48.209-47.704-3.746-3.463-7.516-6.931-11.585-10.013-7.152-5.676-16.49-7.442-25.373-8.1-6.257-0.321-12.557-0.314-18.802 0.259-0.573 6.246-0.58 12.546-0.259 18.802 0.658 8.884 2.424 18.221 8.1 25.373 3.082 4.07 6.55 7.839 10.013 11.585 15.525 16.439 31.827 32.111 47.704 48.209-6.284 6.204-12.499 12.477-18.749 18.709-14.565-14.565-29.108-29.142-43.679-43.696-7.521-7.635-15.61-14.895-21.411-24.005-6.193-9.071-8.781-20.043-9.928-30.817-1.374-12.812 0.726-25.64 2.912-38.23 0.51-2.999 1.384-5.898 2.549-8.676z"
     id="path4864"
     style="fill:#962900;fill-opacity:0.24758911" /><path
     d="m838.79 1203.8c2.788 1.141 5.455 2.573 7.94 4.333 10.448 7.357 21.004 14.943 29.092 24.974 6.807 8.429 12.736 18.018 14.771 28.811 2.34 10.544 1.754 21.397 1.834 32.114-0.012 20.595 0.012 41.185 0.012 61.784-8.826 0.012-17.657-0.028-26.487 0.028-0.157-22.61 0.289-45.219-0.357-67.821-0.201-5.098-0.413-10.215-1.112-15.272-1.044-9.071-6.398-16.922-12.214-23.669-4.197-4.651-8.656-9.101-13.479-13.112-4.822 4.011-9.281 8.461-13.479 13.112-5.816 6.747-11.17 14.598-12.214 23.669-0.698 5.057-0.911 10.175-1.112 15.272-0.646 22.602-0.201 45.211-0.357 67.821-8.83-0.056-17.661-0.016-26.487-0.028 0-20.599 0.024-41.189 0.012-61.784 0.08-10.717-0.506-21.57 1.834-32.114 2.035-10.793 7.963-20.382 14.771-28.811 8.088-10.031 18.644-17.617 29.092-24.974 2.484-1.761 5.152-3.193 7.94-4.333z"
     id="path4866"
     style="fill:#962900;fill-opacity:0.24758911" /><path
     d="m580.7 1096.9c1.165 2.778 2.038 5.677 2.55 8.678 2.185 12.59 4.286 25.419 2.912 38.23-1.147 10.774-3.735 21.746-9.928 30.817-5.801 9.11-13.89 16.37-21.411 24.005-14.571 14.554-29.114 29.131-43.679 43.696-6.25-6.233-12.465-12.505-18.749-18.709 15.877-16.098 32.179-31.77 47.704-48.209 3.463-3.746 6.931-7.516 10.013-11.585 5.676-7.152 7.442-16.49 8.1-25.373 0.321-6.257 0.314-12.557-0.259-18.802-6.246-0.573-12.546-0.58-18.802-0.259-8.883 0.658-18.221 2.424-25.373 8.1-4.07 3.082-7.839 6.55-11.585 10.013-16.439 15.525-32.111 31.827-48.209 47.704-6.204-6.284-12.477-12.499-18.709-18.749 14.565-14.565 29.142-29.108 43.697-43.679 7.635-7.521 14.895-15.61 24.005-21.411 9.071-6.193 20.043-8.781 30.817-9.928 12.812-1.374 25.64 0.726 38.23 2.912 2.999 0.51 5.898 1.384 8.676 2.549z"
     id="path4868"
     style="fill:#962900;fill-opacity:0.24758911" /><path
     d="m473.8 838.79c-1.141 2.788-2.573 5.455-4.333 7.94-7.357 10.448-14.943 21.004-24.974 29.092-8.429 6.807-18.018 12.736-28.811 14.771-10.544 2.34-21.397 1.754-32.114 1.834-20.595-0.012-41.185 0.012-61.784 0.012-0.012-8.826 0.028-17.657-0.028-26.487 22.61-0.157 45.219 0.289 67.821-0.357 5.097-0.201 10.215-0.413 15.272-1.112 9.071-1.044 16.922-6.398 23.669-12.214 4.651-4.197 9.101-8.656 13.112-13.479-4.011-4.822-8.461-9.281-13.112-13.479-6.747-5.816-14.598-11.17-23.669-12.214-5.057-0.698-10.175-0.911-15.272-1.112-22.602-0.646-45.211-0.201-67.821-0.357 0.056-8.83 0.016-17.661 0.028-26.487 20.599 0 41.189 0.024 61.784 0.012 10.717 0.08 21.57-0.506 32.114 1.834 10.793 2.035 20.382 7.963 28.811 14.771 10.03 8.088 17.617 18.644 24.974 29.092 1.76 2.484 3.192 5.152 4.333 7.94z"
     id="path4870"
     style="fill:#962900;fill-opacity:0.24758911" /><path
     d="m580.7 580.7c-2.778 1.165-5.677 2.038-8.678 2.55-12.59 2.185-25.419 4.286-38.23 2.912-10.774-1.147-21.746-3.735-30.817-9.928-9.111-5.801-16.371-13.89-24.005-21.411-14.554-14.571-29.131-29.114-43.697-43.679 6.233-6.25 12.505-12.465 18.709-18.749 16.098 15.877 31.77 32.179 48.209 47.704 3.746 3.463 7.515 6.931 11.585 10.013 7.152 5.676 16.49 7.442 25.373 8.1 6.257 0.321 12.557 0.314 18.802-0.259 0.573-6.246 0.58-12.546 0.259-18.802-0.658-8.883-2.424-18.221-8.1-25.373-3.082-4.07-6.551-7.839-10.013-11.585-15.525-16.439-31.827-32.111-47.704-48.209 6.284-6.204 12.499-12.477 18.749-18.709 14.565 14.565 29.108 29.142 43.679 43.697 7.521 7.635 15.61 14.895 21.411 24.005 6.193 9.071 8.781 20.043 9.928 30.817 1.374 12.812-0.727 25.64-2.912 38.23-0.51 2.999-1.383 5.898-2.548 8.676z"
     id="path4872"
     style="fill:#962900;fill-opacity:0.24758911" /><path
     d="m838.79 473.8c-2.788-1.141-5.455-2.573-7.94-4.333-10.448-7.357-21.004-14.943-29.092-24.974-6.807-8.429-12.736-18.018-14.771-28.811-2.34-10.544-1.754-21.397-1.834-32.114 0.012-20.595-0.012-41.185-0.012-61.784 8.826-0.012 17.657 0.028 26.487-0.028 0.157 22.61-0.289 45.219 0.357 67.821 0.201 5.097 0.413 10.215 1.112 15.272 1.044 9.071 6.398 16.922 12.214 23.669 4.197 4.651 8.657 9.101 13.479 13.112 4.822-4.011 9.281-8.461 13.479-13.112 5.816-6.747 11.17-14.598 12.214-23.669 0.698-5.057 0.911-10.175 1.112-15.272 0.646-22.602 0.201-45.211 0.357-67.821 8.83 0.056 17.661 0.016 26.487 0.028 0 20.599-0.024 41.189-0.012 61.784-0.08 10.717 0.506 21.57-1.834 32.114-2.035 10.793-7.963 20.382-14.771 28.811-8.088 10.03-18.644 17.617-29.092 24.974-2.485 1.76-5.152 3.192-7.94 4.333z"
     id="path4874"
     style="fill:#962900;fill-opacity:0.24758911" /><path
     d="m966.16 531.29c16.225 16.23 32.447 32.464 48.676 48.693-6.301 6.187-12.414 12.562-18.698 18.766-13.642-13.666-27.295-27.319-40.951-40.969-19.308-4e-3 -38.617-4e-3 -57.926 0.013-0.056-8.83 0.128-17.661 0.048-26.491 22.951 0 45.902-9e-3 68.851-0.012z"
     id="path4876"
     style="fill:#962900;fill-opacity:0.24758911" /><path
     d="m1146.3 711.42c-4e-3 22.949-0.012 45.899-0.012 68.851-8.83-0.08-17.661 0.104-26.491 0.048 0.017-19.309 0.017-38.618 0.013-57.926-13.65-13.656-27.304-27.309-40.969-40.951 6.204-6.284 12.579-12.397 18.766-18.698 16.229 16.229 32.463 32.451 48.693 48.676z"
     id="path4878"
     style="fill:#962900;fill-opacity:0.24758911" /><path
     d="m1146.3 966.16c-16.23 16.225-32.464 32.447-48.693 48.676-6.187-6.301-12.562-12.414-18.766-18.698 13.666-13.642 27.319-27.295 40.969-40.951 4e-3 -19.308 4e-3 -38.617-0.013-57.926 8.83-0.056 17.661 0.128 26.491 0.048 0 22.951 8e-3 45.902 0.012 68.851z"
     id="path4880"
     style="fill:#962900;fill-opacity:0.24758911" /><path
     d="m966.16 1146.3c-22.949-4e-3 -45.899-0.012-68.851-0.012 0.08-8.83-0.104-17.661-0.048-26.491 19.309 0.017 38.618 0.017 57.926 0.013 13.656-13.65 27.309-27.304 40.951-40.969 6.284 6.204 12.397 12.579 18.698 18.766-16.229 16.229-32.452 32.463-48.676 48.693z"
     id="path4882"
     style="fill:#962900;fill-opacity:0.24758911" /><path
     d="m711.42 1146.3c-16.225-16.23-32.447-32.464-48.676-48.693 6.301-6.187 12.414-12.562 18.698-18.766 13.642 13.666 27.295 27.319 40.951 40.969 19.308 4e-3 38.617 4e-3 57.926-0.013 0.056 8.83-0.128 17.661-0.048 26.491-22.952 0-45.902 8e-3 -68.851 0.012z"
     id="path4884"
     style="fill:#962900;fill-opacity:0.24758911" /><path
     d="m531.29 966.16c4e-3 -22.949 0.012-45.899 0.012-68.851 8.83 0.08 17.661-0.104 26.491-0.048-0.017 19.309-0.017 38.618-0.013 57.926 13.65 13.656 27.304 27.309 40.969 40.951-6.204 6.284-12.579 12.397-18.766 18.698-16.229-16.229-32.464-32.452-48.693-48.676z"
     id="path4886"
     style="fill:#962900;fill-opacity:0.24758911" /><path
     d="m531.29 711.42c16.23-16.225 32.464-32.447 48.693-48.676 6.187 6.301 12.562 12.414 18.766 18.698-13.666 13.642-27.319 27.295-40.969 40.951-4e-3 19.308-4e-3 38.617 0.013 57.926-8.83 0.056-17.661-0.128-26.491-0.048 0-22.952-9e-3 -45.902-0.012-68.851z"
     id="path4888"
     style="fill:#962900;fill-opacity:0.24758911" /><path
     d="m711.42 531.29c22.949 4e-3 45.899 0.012 68.851 0.012-0.08 8.83 0.104 17.661 0.048 26.491-19.309-0.017-38.618-0.017-57.926-0.013-13.656 13.65-27.309 27.304-40.951 40.969-6.284-6.204-12.397-12.579-18.698-18.766 16.229-16.229 32.451-32.464 48.676-48.693z"
     id="path4890"
     style="fill:#962900;fill-opacity:0.24758911" /><path
     d="m1021.7 510.77c6.221-6.255 12.482-12.471 18.698-18.732 7.419 7.056 13.442 16.013 15.315 26.219 2.231 12.318 4.24 24.857 3.184 37.413-1.033 10.586-3.287 21.383-9.014 30.51-4.655 7.726-10.95 14.242-17.381 20.492-16.285 16.285-32.577 32.565-48.868 48.845-6.238-6.25-12.511-12.471-18.715-18.755 7.777-7.737 15.519-15.508 23.284-23.25 11.472-11.608 23.409-22.83 33.74-35.494 6.426-7.623 8.412-17.846 8.929-27.542 0.289-8.134 0.21-16.354-1.226-24.386-1.583-5.58-4.869-10.473-7.946-15.32z"
     id="path4892"
     style="fill:#962900;fill-opacity:0.24758911" /><path
     d="m736.19 477.49c-0.024-8.822 8e-3 -17.645-0.024-26.467 10.235-0.257 20.828 1.818 29.369 7.71 10.287 7.133 20.575 14.578 28.707 24.203 6.755 8.216 12.796 17.444 15.2 27.948 2.172 8.754 2.328 17.813 2.2 26.78 0 23.031-8e-3 46.062-0.016 69.093-8.83-8e-3 -17.665 0.028-26.495-0.028 0.028-10.97 8e-3 -21.939 0.024-32.905-0.096-16.32 0.409-32.696-1.24-48.956-0.847-9.934-6.671-18.568-13.161-25.789-5.547-5.956-11.415-11.712-18.11-16.376-5.067-2.825-10.851-3.961-16.454-5.213z"
     id="path4894"
     style="fill:#962900;fill-opacity:0.24758911" /><path
     d="m510.77 655.86c-6.255-6.221-12.471-12.482-18.732-18.698 7.056-7.419 16.013-13.442 26.219-15.315 12.318-2.231 24.857-4.24 37.413-3.184 10.586 1.033 21.383 3.287 30.51 9.014 7.726 4.655 14.242 10.95 20.492 17.381 16.285 16.285 32.565 32.577 48.845 48.868-6.25 6.238-12.471 12.511-18.755 18.715-7.737-7.777-15.508-15.519-23.25-23.284-11.608-11.472-22.83-23.409-35.494-33.74-7.623-6.426-17.846-8.412-27.542-8.929-8.134-0.289-16.354-0.21-24.386 1.226-5.58 1.583-10.473 4.87-15.32 7.946z"
     id="path4896"
     style="fill:#962900;fill-opacity:0.24758911" /><path
     d="m477.49 941.38c-8.822 0.024-17.645-8e-3 -26.467 0.024-0.257-10.235 1.818-20.828 7.71-29.369 7.133-10.287 14.578-20.575 24.203-28.707 8.216-6.755 17.444-12.796 27.948-15.2 8.754-2.171 17.813-2.328 26.78-2.2 23.031 0 46.062 8e-3 69.093 0.016-8e-3 8.83 0.028 17.665-0.028 26.495-10.97-0.028-21.939-8e-3 -32.905-0.024-16.32 0.096-32.696-0.409-48.956 1.24-9.934 0.847-18.568 6.671-25.789 13.161-5.956 5.547-11.712 11.415-16.376 18.11-2.825 5.067-3.961 10.851-5.213 16.454z"
     id="path4898"
     style="fill:#962900;fill-opacity:0.24758911" /><path
     d="m655.86 1166.8c-6.221 6.255-12.482 12.471-18.698 18.732-7.419-7.056-13.442-16.013-15.315-26.219-2.231-12.318-4.24-24.857-3.184-37.413 1.033-10.586 3.287-21.383 9.014-30.51 4.655-7.726 10.95-14.242 17.381-20.492 16.285-16.286 32.577-32.565 48.868-48.845 6.238 6.25 12.511 12.471 18.715 18.755-7.777 7.737-15.519 15.508-23.284 23.25-11.472 11.608-23.409 22.83-33.74 35.494-6.426 7.623-8.412 17.846-8.929 27.542-0.289 8.134-0.21 16.354 1.226 24.385 1.583 5.58 4.87 10.473 7.946 15.321z"
     id="path4900"
     style="fill:#962900;fill-opacity:0.24758911" /><path
     d="m941.38 1200.1c0.024 8.822-8e-3 17.645 0.024 26.467-10.235 0.257-20.828-1.818-29.369-7.71-10.287-7.132-20.575-14.578-28.707-24.203-6.755-8.216-12.796-17.444-15.2-27.948-2.171-8.754-2.328-17.813-2.2-26.78 0-23.031 8e-3 -46.062 0.016-69.093 8.83 8e-3 17.665-0.028 26.495 0.028-0.028 10.97-8e-3 21.939-0.024 32.905 0.096 16.32-0.409 32.696 1.24 48.956 0.847 9.934 6.671 18.568 13.161 25.788 5.547 5.957 11.415 11.712 18.11 16.376 5.067 2.825 10.851 3.961 16.454 5.214z"
     id="path4902"
     style="fill:#962900;fill-opacity:0.24758911" /><path
     d="m1166.8 1021.7c6.255 6.221 12.471 12.482 18.732 18.698-7.056 7.419-16.013 13.442-26.219 15.315-12.318 2.231-24.857 4.24-37.413 3.184-10.586-1.033-21.383-3.287-30.51-9.014-7.726-4.655-14.242-10.95-20.492-17.381-16.286-16.285-32.565-32.577-48.845-48.868 6.25-6.238 12.471-12.511 18.755-18.715 7.737 7.777 15.508 15.519 23.25 23.284 11.608 11.472 22.83 23.409 35.494 33.74 7.623 6.426 17.846 8.412 27.542 8.929 8.134 0.289 16.354 0.21 24.385-1.226 5.58-1.583 10.473-4.869 15.321-7.946z"
     id="path4904"
     style="fill:#962900;fill-opacity:0.24758911" /><path
     d="m1200.1 736.19c8.822-0.024 17.645 8e-3 26.467-0.024 0.257 10.235-1.818 20.828-7.71 29.369-7.132 10.287-14.578 20.575-24.203 28.707-8.216 6.755-17.444 12.796-27.948 15.2-8.754 2.172-17.813 2.328-26.78 2.2-23.031 0-46.062-8e-3 -69.093-0.016 8e-3 -8.83-0.028-17.665 0.028-26.495 10.97 0.028 21.939 8e-3 32.905 0.024 16.32-0.096 32.696 0.409 48.956-1.24 9.934-0.847 18.568-6.671 25.788-13.161 5.957-5.547 11.712-11.415 16.376-18.11 2.825-5.067 3.961-10.851 5.214-16.454z"
     id="path4906"
     style="fill:#962900;fill-opacity:0.24758911" /><path
     d="m1166.8 655.86c6.255-6.221 12.471-12.482 18.732-18.698-7.056-7.419-16.013-13.442-26.219-15.315-12.318-2.231-24.857-4.24-37.413-3.184-10.586 1.033-21.383 3.287-30.51 9.014-7.726 4.655-14.242 10.95-20.492 17.381-16.286 16.285-32.565 32.577-48.845 48.868 6.25 6.238 12.471 12.511 18.755 18.715 7.737-7.777 15.508-15.519 23.25-23.284 11.608-11.472 22.83-23.409 35.494-33.74 7.623-6.426 17.846-8.412 27.542-8.929 8.134-0.289 16.354-0.21 24.385 1.226 5.58 1.583 10.473 4.87 15.321 7.946z"
     id="path4908"
     style="fill:#962900;fill-opacity:0.24758911" /><path
     d="m941.38 477.49c0.024-8.822-8e-3 -17.645 0.024-26.467-10.235-0.257-20.828 1.818-29.369 7.71-10.287 7.133-20.575 14.578-28.707 24.203-6.755 8.216-12.796 17.444-15.2 27.948-2.171 8.754-2.328 17.813-2.2 26.78 0 23.031 8e-3 46.062 0.016 69.093 8.83-8e-3 17.665 0.028 26.495-0.028-0.028-10.97-8e-3 -21.939-0.024-32.905 0.096-16.32-0.409-32.696 1.24-48.956 0.847-9.934 6.671-18.568 13.161-25.789 5.547-5.956 11.415-11.712 18.11-16.376 5.067-2.825 10.851-3.961 16.454-5.213z"
     id="path4910"
     style="fill:#962900;fill-opacity:0.24758911" /><path
     d="m655.86 510.77c-6.221-6.255-12.482-12.471-18.698-18.732-7.419 7.056-13.442 16.013-15.315 26.219-2.231 12.318-4.24 24.857-3.184 37.413 1.033 10.586 3.287 21.383 9.014 30.51 4.655 7.726 10.95 14.242 17.381 20.492 16.285 16.285 32.577 32.565 48.868 48.845 6.238-6.25 12.511-12.471 18.715-18.755-7.777-7.737-15.519-15.508-23.284-23.25-11.472-11.608-23.409-22.83-33.74-35.494-6.426-7.623-8.412-17.846-8.929-27.542-0.289-8.134-0.21-16.354 1.226-24.386 1.583-5.58 4.87-10.473 7.946-15.32z"
     id="path4912"
     style="fill:#962900;fill-opacity:0.24758911" /><path
     d="m477.49 736.19c-8.822-0.024-17.645 8e-3 -26.467-0.024-0.257 10.235 1.818 20.828 7.71 29.369 7.133 10.287 14.578 20.575 24.203 28.707 8.216 6.755 17.444 12.796 27.948 15.2 8.754 2.172 17.813 2.328 26.78 2.2 23.031 0 46.062-8e-3 69.093-0.016-8e-3 -8.83 0.028-17.665-0.028-26.495-10.97 0.028-21.939 8e-3 -32.905 0.024-16.32-0.096-32.696 0.409-48.956-1.24-9.934-0.847-18.568-6.671-25.789-13.161-5.956-5.547-11.712-11.415-16.376-18.11-2.825-5.067-3.961-10.851-5.213-16.454z"
     id="path4914"
     style="fill:#962900;fill-opacity:0.24758911" /><path
     d="m510.77 1021.7c-6.255 6.221-12.471 12.482-18.732 18.698 7.056 7.419 16.013 13.442 26.219 15.315 12.318 2.231 24.857 4.24 37.413 3.184 10.586-1.033 21.383-3.287 30.51-9.014 7.726-4.655 14.242-10.95 20.492-17.381 16.285-16.285 32.565-32.577 48.845-48.868-6.25-6.238-12.471-12.511-18.755-18.715-7.737 7.777-15.508 15.519-23.25 23.284-11.608 11.472-22.83 23.409-35.494 33.74-7.623 6.426-17.846 8.412-27.542 8.929-8.134 0.289-16.354 0.21-24.386-1.226-5.58-1.583-10.473-4.869-15.32-7.946z"
     id="path4916"
     style="fill:#962900;fill-opacity:0.24758911" /><path
     d="m736.19 1200.1c-0.024 8.822 8e-3 17.645-0.024 26.467 10.235 0.257 20.828-1.818 29.369-7.71 10.287-7.132 20.575-14.578 28.707-24.203 6.755-8.216 12.796-17.444 15.2-27.948 2.172-8.754 2.328-17.813 2.2-26.78 0-23.031-8e-3 -46.062-0.016-69.093-8.83 8e-3 -17.665-0.028-26.495 0.028 0.028 10.97 8e-3 21.939 0.024 32.905-0.096 16.32 0.409 32.696-1.24 48.956-0.847 9.934-6.671 18.568-13.161 25.788-5.547 5.957-11.415 11.712-18.11 16.376-5.067 2.825-10.851 3.961-16.454 5.214z"
     id="path4918"
     style="fill:#962900;fill-opacity:0.24758911" /><path
     d="m1021.7 1166.8c6.221 6.255 12.482 12.471 18.698 18.732 7.419-7.056 13.442-16.013 15.315-26.219 2.231-12.318 4.24-24.857 3.184-37.413-1.033-10.586-3.287-21.383-9.014-30.51-4.655-7.726-10.95-14.242-17.381-20.492-16.285-16.286-32.577-32.565-48.868-48.845-6.238 6.25-12.511 12.471-18.715 18.755 7.777 7.737 15.519 15.508 23.284 23.25 11.472 11.608 23.409 22.83 33.74 35.494 6.426 7.623 8.412 17.846 8.929 27.542 0.289 8.134 0.21 16.354-1.226 24.385-1.583 5.58-4.869 10.473-7.946 15.321z"
     id="path4920"
     style="fill:#962900;fill-opacity:0.24758911" /><path
     d="m1200.1 941.38c8.822 0.024 17.645-8e-3 26.467 0.024 0.257-10.235-1.818-20.828-7.71-29.369-7.132-10.287-14.578-20.575-24.203-28.707-8.216-6.755-17.444-12.796-27.948-15.2-8.754-2.171-17.813-2.328-26.78-2.2-23.031 0-46.062 8e-3 -69.093 0.016 8e-3 8.83-0.028 17.665 0.028 26.495 10.97-0.028 21.939-8e-3 32.905-0.024 16.32 0.096 32.696-0.409 48.956 1.24 9.934 0.847 18.568 6.671 25.788 13.161 5.957 5.547 11.712 11.415 16.376 18.11 2.825 5.067 3.961 10.851 5.214 16.454z"
     id="path4922"
     style="fill:#962900;fill-opacity:0.24758911" /><path
     d="m1151 526.57c-5.236-5.239-10.47-10.48-15.701-15.723 6.346-6.13 12.38-12.584 18.67-18.772 5.257 5.252 10.513 10.505 15.768 15.758 5.254 5.255 10.506 10.511 15.758 15.768-6.187 6.289-12.641 12.323-18.772 18.669-5.244-5.231-10.484-10.465-15.723-15.7z"
     id="path4924"
     style="fill:#962900;fill-opacity:0.24758911" /><path
     d="m1280.3 838.79c2e-3 -7.407 7e-3 -14.813 0.016-22.221 8.822 0.152 17.653-0.145 26.475-0.072 4e-3 7.431 6e-3 14.862 7e-3 22.293-1e-3 7.431-3e-3 14.862-7e-3 22.293-8.822 0.072-17.653-0.225-26.475-0.072-0.01-7.408-0.014-14.815-0.016-22.221z"
     id="path4926"
     style="fill:#962900;fill-opacity:0.24758911" /><path
     d="m1151 1151c5.239-5.236 10.48-10.47 15.723-15.701 6.13 6.346 12.584 12.38 18.772 18.67-5.252 5.257-10.505 10.513-15.758 15.768-5.255 5.254-10.511 10.506-15.768 15.758-6.289-6.187-12.323-12.641-18.67-18.772 5.231-5.244 10.465-10.484 15.701-15.723z"
     id="path4928"
     style="fill:#962900;fill-opacity:0.24758911" /><path
     d="m838.79 1280.3c7.407 2e-3 14.813 7e-3 22.221 0.016-0.153 8.822 0.144 17.653 0.072 26.475-7.431 4e-3 -14.862 6e-3 -22.293 7e-3 -7.431-1e-3 -14.862-3e-3 -22.293-7e-3 -0.072-8.822 0.225-17.653 0.072-26.475 7.407-0.01 14.814-0.014 22.221-0.016z"
     id="path4930"
     style="fill:#962900;fill-opacity:0.24758911" /><path
     d="m526.57 1151c5.236 5.239 10.47 10.48 15.701 15.723-6.346 6.13-12.38 12.584-18.669 18.772-5.257-5.252-10.513-10.505-15.768-15.758-5.254-5.255-10.507-10.511-15.758-15.768 6.187-6.289 12.641-12.323 18.772-18.67 5.242 5.231 10.483 10.465 15.722 15.701z"
     id="path4932"
     style="fill:#962900;fill-opacity:0.24758911" /><path
     d="m397.24 838.79c-2e-3 7.407-7e-3 14.813-0.016 22.221-8.822-0.153-17.653 0.144-26.475 0.072-4e-3 -7.431-6e-3 -14.862-7e-3 -22.293 1e-3 -7.431 3e-3 -14.862 7e-3 -22.293 8.822-0.072 17.653 0.225 26.475 0.072 9e-3 7.407 0.014 14.814 0.016 22.221z"
     id="path4934"
     style="fill:#962900;fill-opacity:0.24758911" /><path
     d="m526.57 526.57c-5.239 5.236-10.48 10.47-15.723 15.701-6.13-6.346-12.584-12.38-18.772-18.669 5.252-5.257 10.505-10.513 15.758-15.768 5.255-5.254 10.511-10.507 15.768-15.758 6.289 6.187 12.323 12.641 18.669 18.772-5.231 5.242-10.465 10.483-15.7 15.722z"
     id="path4936"
     style="fill:#962900;fill-opacity:0.24758911" /><path
     d="m838.79 397.24c-7.407-2e-3 -14.813-7e-3 -22.221-0.016 0.152-8.822-0.145-17.653-0.072-26.475 7.431-4e-3 14.862-6e-3 22.293-7e-3 7.431 1e-3 14.862 3e-3 22.293 7e-3 0.072 8.822-0.225 17.653-0.072 26.475-7.408 9e-3 -14.815 0.014-22.221 0.016z"
     id="path4938"
     style="fill:#962900;fill-opacity:0.24758911" /><path
     d="m953.18 562.61c1.643 1.637 3.29 3.272 4.94 4.902-3.97 3.978-7.941 7.955-11.913 11.931 3e-3 -5.62 7e-3 -11.24 0.013-16.86 2.32 0.015 4.64 0.023 6.96 0.027z"
     id="path4940"
     style="fill:#962900;fill-opacity:0.24758911" /><path
     d="m1115 724.39c4e-3 2.32 0.012 4.64 0.027 6.96-5.62 5e-3 -11.24 0.01-16.86 0.013 3.976-3.972 7.953-7.943 11.931-11.913 1.63 1.65 3.265 3.296 4.902 4.94z"
     id="path4942"
     style="fill:#962900;fill-opacity:0.24758911" /><path
     d="m1115 953.18c-1.637 1.643-3.272 3.29-4.902 4.94-3.978-3.97-7.955-7.941-11.931-11.913 5.62 3e-3 11.24 7e-3 16.86 0.013-0.014 2.32-0.023 4.64-0.027 6.96z"
     id="path4944"
     style="fill:#962900;fill-opacity:0.24758911" /><path
     d="m953.18 1115c-2.32 4e-3 -4.64 0.012-6.96 0.027-5e-3 -5.62-0.01-11.24-0.013-16.86 3.972 3.976 7.943 7.953 11.913 11.931-1.651 1.63-3.297 3.265-4.94 4.902z"
     id="path4946"
     style="fill:#962900;fill-opacity:0.24758911" /><path
     d="m724.39 1115c-1.643-1.637-3.29-3.272-4.94-4.902 3.97-3.978 7.941-7.955 11.913-11.931-3e-3 5.62-7e-3 11.24-0.013 16.86-2.32-0.014-4.64-0.023-6.96-0.027z"
     id="path4948"
     style="fill:#962900;fill-opacity:0.24758911" /><path
     d="m562.61 953.18c-4e-3 -2.32-0.012-4.64-0.027-6.96 5.62-5e-3 11.24-0.01 16.86-0.013-3.976 3.972-7.953 7.943-11.931 11.913-1.63-1.651-3.264-3.297-4.902-4.94z"
     id="path4950"
     style="fill:#962900;fill-opacity:0.24758911" /><path
     d="m562.61 724.39c1.637-1.643 3.272-3.29 4.902-4.94 3.978 3.97 7.955 7.941 11.931 11.913-5.62-3e-3 -11.24-7e-3 -16.86-0.013 0.015-2.32 0.023-4.64 0.027-6.96z"
     id="path4952"
     style="fill:#962900;fill-opacity:0.24758911" /><path
     d="m724.39 562.61c2.32-4e-3 4.64-0.012 6.96-0.027 5e-3 5.62 0.01 11.24 0.013 16.86-3.972-3.976-7.943-7.953-11.913-11.931 1.65-1.63 3.296-3.264 4.94-4.902z"
     id="path4954"
     style="fill:#962900;fill-opacity:0.24758911" /><path
     d="m899.65 691.86l1.708 1.708c-1.374 1.369-2.747 2.74-4.118 4.112 0-1.94-1e-3 -3.88-5e-3 -5.82h2.415z"
     id="path4956"
     style="fill:#962900;fill-opacity:0.24758911" /><path
     d="m985.72 777.93v2.415c-1.94-4e-3 -3.88-5e-3 -5.82-5e-3 1.372-1.372 2.742-2.744 4.112-4.118 0.569 0.57 1.138 1.139 1.708 1.708z"
     id="path4958"
     style="fill:#962900;fill-opacity:0.24758911" /><path
     d="m985.72 899.65l-1.708 1.708c-1.369-1.374-2.74-2.747-4.112-4.118 1.94 0 3.88-1e-3 5.82-5e-3v2.415z"
     id="path4960"
     style="fill:#962900;fill-opacity:0.24758911" /><path
     d="m899.65 985.72h-2.415c4e-3 -1.94 5e-3 -3.88 5e-3 -5.82 1.372 1.372 2.744 2.742 4.118 4.112-0.569 0.569-1.139 1.138-1.708 1.708z"
     id="path4962"
     style="fill:#962900;fill-opacity:0.24758911" /><path
     d="m777.93 985.72l-1.708-1.708c1.374-1.369 2.747-2.74 4.118-4.112 0 1.94 1e-3 3.88 5e-3 5.82h-2.415z"
     id="path4964"
     style="fill:#962900;fill-opacity:0.24758911" /><path
     d="m691.86 899.65v-2.415c1.94 4e-3 3.88 5e-3 5.82 5e-3 -1.372 1.372-2.742 2.744-4.112 4.118l-1.708-1.708z"
     id="path4966"
     style="fill:#962900;fill-opacity:0.24758911" /><path
     d="m691.86 777.93l1.708-1.708c1.369 1.374 2.74 2.747 4.112 4.118-1.94 0-3.88 1e-3 -5.82 5e-3v-2.415z"
     id="path4968"
     style="fill:#962900;fill-opacity:0.24758911" /><path
     d="m777.93 691.86h2.415c-4e-3 1.94-5e-3 3.88-5e-3 5.82-1.372-1.372-2.744-2.742-4.118-4.112 0.57-0.569 1.139-1.139 1.708-1.708z"
     id="path4970"
     style="fill:#962900;fill-opacity:0.24758911" /><path
     d="m932.9 611.57c22.191 22.173 44.365 44.366 66.543 66.555 22.189 22.178 44.382 44.352 66.555 66.543 0.013 31.37-1e-3 62.742-8e-3 94.115 8e-3 31.373 0.021 62.745 8e-3 94.115-22.173 22.191-44.366 44.365-66.555 66.543-22.178 22.189-44.352 44.382-66.543 66.555-31.37 0.013-62.742-1e-3 -94.115-8e-3 -31.373 8e-3 -62.745 0.021-94.115 8e-3 -22.191-22.173-44.365-44.366-66.543-66.555-22.189-22.178-44.383-44.352-66.555-66.543-0.013-31.37 1e-3 -62.742 8e-3 -94.115-8e-3 -31.373-0.021-62.745-8e-3 -94.115 22.173-22.191 44.366-44.365 66.555-66.543 22.178-22.189 44.352-44.383 66.543-66.555 31.37-0.013 62.742 1e-3 94.115 8e-3 31.372-7e-3 62.745-0.021 94.115-8e-3zm47.82 85.278c-19.59-19.602-39.197-39.187-58.796-58.78-27.713-5e-3 -55.426-0.02-83.139-0.012-27.713-9e-3 -55.426 7e-3 -83.139 0.012-19.6 19.593-39.206 39.177-58.796 58.78-19.602 19.59-39.187 39.197-58.78 58.796-5e-3 27.713-0.02 55.426-0.012 83.139-9e-3 27.713 7e-3 55.426 0.012 83.139 19.593 19.6 39.177 39.206 58.78 58.796 19.59 19.602 39.197 39.187 58.796 58.78 27.713 5e-3 55.426 0.021 83.139 0.012 27.713 9e-3 55.426-7e-3 83.139-0.012 19.6-19.593 39.206-39.177 58.796-58.78 19.602-19.59 39.187-39.197 58.78-58.796 5e-3 -27.713 0.021-55.426 0.012-83.139 9e-3 -27.713-7e-3 -55.426-0.012-83.139-19.593-19.599-39.177-39.206-58.78-58.796z"
     id="path4972"
     style="fill:#962900;fill-opacity:0.24758911" /><path
     d="m1030.6 646.95c-0.209-2.441-0.515-4.873-0.949-7.288-1.572-5.597-4.876-10.501-7.958-15.366 6.221-6.255 12.482-12.471 18.698-18.732 5.495 5.221 10.218 11.487 13.064 18.531 7.043 2.846 13.309 7.57 18.531 13.064-6.261 6.216-12.477 12.477-18.732 18.698-4.865-3.082-9.769-6.386-15.366-7.958-2.415-0.434-4.847-0.74-7.288-0.949z"
     id="path4974"
     style="fill:#962900;fill-opacity:0.24758911" /><path
     d="m1110.1 838.79c1.578-1.874 3.081-3.81 4.482-5.824 2.846-5.069 3.978-10.873 5.238-16.493 8.822-0.024 17.645 8e-3 26.467-0.024 0.193 7.577-0.898 15.348-3.866 22.341 2.968 6.993 4.059 14.764 3.866 22.341-8.822-0.032-17.645 0-26.467-0.024-1.26-5.619-2.392-11.423-5.238-16.493-1.401-2.015-2.904-3.95-4.482-5.824z"
     id="path4976"
     style="fill:#962900;fill-opacity:0.24758911" /><path
     d="m1030.6 1030.6c2.441-0.209 4.873-0.515 7.288-0.949 5.597-1.572 10.501-4.876 15.366-7.958 6.255 6.221 12.471 12.482 18.732 18.698-5.221 5.495-11.487 10.218-18.531 13.064-2.846 7.043-7.57 13.309-13.064 18.531-6.216-6.261-12.477-12.477-18.698-18.732 3.082-4.865 6.386-9.769 7.958-15.366 0.434-2.415 0.74-4.847 0.949-7.288z"
     id="path4978"
     style="fill:#962900;fill-opacity:0.24758911" /><path
     d="m838.79 1110.1c1.874 1.578 3.81 3.081 5.824 4.482 5.069 2.846 10.873 3.978 16.493 5.238 0.024 8.822-8e-3 17.645 0.024 26.467-7.577 0.193-15.348-0.898-22.341-3.866-6.993 2.968-14.764 4.059-22.341 3.866 0.032-8.822 0-17.645 0.024-26.467 5.619-1.26 11.423-2.392 16.493-5.238 2.014-1.401 3.95-2.904 5.824-4.482z"
     id="path4980"
     style="fill:#962900;fill-opacity:0.24758911" /><path
     d="m646.95 1030.6c0.209 2.441 0.515 4.873 0.949 7.288 1.572 5.597 4.876 10.501 7.958 15.366-6.221 6.255-12.482 12.471-18.698 18.732-5.494-5.221-10.218-11.487-13.064-18.531-7.044-2.846-13.309-7.57-18.531-13.064 6.261-6.216 12.477-12.477 18.732-18.698 4.865 3.082 9.769 6.386 15.366 7.958 2.415 0.434 4.847 0.74 7.288 0.949z"
     id="path4982"
     style="fill:#962900;fill-opacity:0.24758911" /><path
     d="m567.49 838.79c-1.578 1.874-3.081 3.81-4.482 5.824-2.846 5.069-3.978 10.873-5.238 16.493-8.822 0.024-17.645-8e-3 -26.467 0.024-0.193-7.577 0.898-15.348 3.866-22.341-2.968-6.993-4.059-14.764-3.866-22.341 8.822 0.032 17.645 0 26.467 0.024 1.26 5.619 2.392 11.423 5.238 16.493 1.401 2.014 2.904 3.95 4.482 5.824z"
     id="path4984"
     style="fill:#962900;fill-opacity:0.24758911" /><path
     d="m646.95 646.95c-2.441 0.209-4.873 0.515-7.288 0.949-5.597 1.572-10.501 4.876-15.366 7.958-6.255-6.221-12.471-12.482-18.732-18.698 5.221-5.494 11.487-10.218 18.531-13.064 2.846-7.044 7.57-13.309 13.064-18.531 6.216 6.261 12.477 12.477 18.698 18.732-3.082 4.865-6.386 9.769-7.958 15.366-0.434 2.415-0.74 4.847-0.949 7.288z"
     id="path4986"
     style="fill:#962900;fill-opacity:0.24758911" /><path
     d="m838.79 567.49c-1.874-1.578-3.81-3.081-5.824-4.482-5.069-2.846-10.873-3.978-16.493-5.238-0.024-8.822 8e-3 -17.645-0.024-26.467 7.577-0.193 15.348 0.898 22.341 3.866 6.993-2.968 14.764-4.059 22.341-3.866-0.032 8.822 0 17.645-0.024 26.467-5.619 1.26-11.423 2.392-16.493 5.238-2.015 1.401-3.95 2.904-5.824 4.482z"
     id="path4988"
     style="fill:#962900;fill-opacity:0.24758911" /><path
     d="m892.42 709.31c15.654-15.658 31.303-31.323 46.958-46.984 6.25 6.233 12.465 12.505 18.749 18.709-29.307 29.364-58.659 58.676-88 88.006-0.577-0.578-1.154-1.155-1.731-1.732-0.816 0-1.633 0-2.449 1e-3 -8e-3 -41.486-0.036-82.969 4e-3 -124.46 8.83 0.056 17.661 0.016 26.487 0.028-4e-3 22.144-0.015 44.286-0.018 66.427z"
     id="path4990"
     style="fill:#962900;fill-opacity:0.24758911" /><path
     d="m968.26 785.16c22.141-3e-3 44.283-0.014 66.427-0.018 0.012 8.826-0.028 17.657 0.028 26.487-41.486 0.04-82.969 0.012-124.46 4e-3 1e-3 -0.816 1e-3 -1.633 1e-3 -2.449-0.577-0.577-1.155-1.154-1.732-1.731 29.33-29.341 58.642-58.693 88.006-88 6.204 6.284 12.477 12.499 18.709 18.749-15.662 15.656-31.326 31.304-46.984 46.958z"
     id="path4992"
     style="fill:#962900;fill-opacity:0.24758911" /><path
     d="m968.26 892.42c15.658 15.654 31.323 31.303 46.984 46.958-6.233 6.25-12.505 12.465-18.709 18.749-29.364-29.307-58.676-58.659-88.006-88 0.578-0.577 1.155-1.154 1.732-1.731 0-0.816 0-1.633-1e-3 -2.449 41.486-8e-3 82.969-0.036 124.46 4e-3 -0.056 8.83-0.016 17.661-0.028 26.487-22.144-4e-3 -44.286-0.015-66.427-0.018z"
     id="path4994"
     style="fill:#962900;fill-opacity:0.24758911" /><path
     d="m892.42 968.26c3e-3 22.141 0.014 44.283 0.018 66.427-8.826 0.012-17.657-0.028-26.487 0.028-0.04-41.486-0.012-82.969-4e-3 -124.46 0.816 1e-3 1.633 1e-3 2.449 1e-3 0.577-0.577 1.154-1.155 1.731-1.732 29.341 29.33 58.693 58.642 88 88.006-6.284 6.204-12.499 12.477-18.749 18.709-15.655-15.662-31.304-31.326-46.958-46.984z"
     id="path4996"
     style="fill:#962900;fill-opacity:0.24758911" /><path
     d="m785.16 968.26c-15.654 15.658-31.303 31.323-46.958 46.984-6.25-6.233-12.465-12.505-18.749-18.709 29.307-29.364 58.659-58.676 88-88.006 0.577 0.578 1.154 1.155 1.731 1.732 0.816 0 1.633 0 2.449-1e-3 8e-3 41.486 0.036 82.969-4e-3 124.46-8.83-0.056-17.661-0.016-26.487-0.028 5e-3 -22.144 0.016-44.286 0.018-66.427z"
     id="path4998"
     style="fill:#962900;fill-opacity:0.24758911" /><path
     d="m709.31 892.42c-22.141 3e-3 -44.283 0.014-66.427 0.018-0.012-8.826 0.028-17.657-0.028-26.487 41.486-0.04 82.969-0.012 124.46-4e-3 -1e-3 0.816-1e-3 1.633-1e-3 2.449 0.577 0.577 1.155 1.154 1.732 1.731-29.33 29.341-58.642 58.693-88.006 88-6.204-6.284-12.477-12.499-18.709-18.749 15.661-15.655 31.326-31.304 46.984-46.958z"
     id="path5000"
     style="fill:#962900;fill-opacity:0.24758911" /><path
     d="m709.31 785.16c-15.658-15.654-31.323-31.303-46.984-46.958 6.233-6.25 12.505-12.465 18.709-18.749 29.364 29.307 58.676 58.659 88.006 88-0.578 0.577-1.155 1.154-1.732 1.731 0 0.816 0 1.633 1e-3 2.449-41.486 8e-3 -82.969 0.036-124.46-4e-3 0.056-8.83 0.016-17.661 0.028-26.487 22.144 5e-3 44.286 0.016 66.427 0.018z"
     id="path5002"
     style="fill:#962900;fill-opacity:0.24758911" /><path
     d="m785.16 709.31c-3e-3 -22.141-0.014-44.283-0.018-66.427 8.826-0.012 17.657 0.028 26.487-0.028 0.04 41.486 0.012 82.969 4e-3 124.46-0.816-1e-3 -1.633-1e-3 -2.449-1e-3 -0.577 0.577-1.154 1.155-1.731 1.732-29.341-29.33-58.693-58.642-88-88.006 6.284-6.204 12.499-12.477 18.749-18.709 15.656 15.661 31.304 31.326 46.958 46.984z"
     id="path5004"
     style="fill:#962900;fill-opacity:0.24758911" /><path
     d="m866.4 772.12c6.507 6.51 13.013 13.02 19.521 19.529 6.51 6.507 13.02 13.014 19.529 19.521l-6e-3 27.612c2e-3 9.204 4e-3 18.409 6e-3 27.612-6.51 6.507-13.02 13.013-19.529 19.521-6.507 6.51-13.014 13.02-19.521 19.529l-27.612-6e-3c-9.204 2e-3 -18.409 4e-3 -27.612 6e-3 -6.507-6.51-13.013-13.02-19.521-19.529-6.51-6.507-13.02-13.014-19.529-19.521l6e-3 -27.612c-2e-3 -9.204-4e-3 -18.409-6e-3 -27.612 6.51-6.507 13.02-13.013 19.529-19.521 6.507-6.51 13.014-13.02 19.521-19.529l27.612 6e-3c9.204-1e-3 18.408-4e-3 27.612-6e-3zm0.798 38.252c-3.922-3.924-7.844-7.847-11.768-11.769-5.548-1e-3 -11.095 0-16.643 1e-3 -5.548-2e-3 -11.095-2e-3 -16.643-1e-3 -3.923 3.922-7.846 7.845-11.768 11.769-3.924 3.922-7.847 7.844-11.769 11.768-1e-3 5.548 0 11.095 1e-3 16.643-2e-3 5.548-2e-3 11.095-1e-3 16.643 3.922 3.923 7.845 7.846 11.769 11.768 3.922 3.924 7.844 7.847 11.768 11.769 5.548 1e-3 11.095 0 16.643-1e-3 5.548 2e-3 11.095 2e-3 16.643 1e-3 3.923-3.922 7.846-7.845 11.768-11.769 3.924-3.922 7.847-7.844 11.769-11.768 1e-3 -5.548 0-11.095-1e-3 -16.643 2e-3 -5.548 2e-3 -11.095 1e-3 -16.643-3.922-3.923-7.845-7.846-11.769-11.768z"
     id="path5006"
     style="fill:#962900;fill-opacity:0.24758911" /><path
     d="m923.95 753.62c-5.26-5.258-10.519-10.518-15.778-15.778 6.227-6.267 12.494-12.488 18.715-18.755 5.269 5.262 10.537 10.526 15.804 15.791 5.265 5.267 10.528 10.535 15.791 15.804-6.267 6.221-12.488 12.488-18.755 18.715-5.26-5.258-10.519-10.517-15.777-15.777z"
     id="path5008"
     style="fill:#962900;fill-opacity:0.24758911" /><path
     d="m959.23 838.79c-1e-3 -7.438-1e-3 -14.875 0-22.313 8.834-0.028 17.665 4e-3 26.495-0.028 5e-3 7.447 8e-3 14.894 0.01 22.341-2e-3 7.447-5e-3 14.894-0.01 22.341-8.83-0.032-17.661 0-26.495-0.028-2e-3 -7.438-2e-3 -14.876 0-22.313z"
     id="path5010"
     style="fill:#962900;fill-opacity:0.24758911" /><path
     d="m923.95 923.95c5.258-5.26 10.518-10.519 15.778-15.778 6.267 6.227 12.488 12.494 18.755 18.715-5.262 5.269-10.526 10.537-15.791 15.804-5.267 5.265-10.535 10.528-15.804 15.791-6.221-6.267-12.488-12.488-18.715-18.755 5.257-5.26 10.517-10.519 15.777-15.777z"
     id="path5012"
     style="fill:#962900;fill-opacity:0.24758911" /><path
     d="m838.79 959.23c7.438-1e-3 14.875-1e-3 22.313 0 0.028 8.834-4e-3 17.665 0.028 26.495-7.447 5e-3 -14.894 8e-3 -22.341 0.01-7.447-2e-3 -14.894-5e-3 -22.341-0.01 0.032-8.83 0-17.661 0.028-26.495 7.437-2e-3 14.875-2e-3 22.313 0z"
     id="path5014"
     style="fill:#962900;fill-opacity:0.24758911" /><path
     d="m753.62 923.95c5.26 5.258 10.519 10.518 15.778 15.778-6.227 6.267-12.494 12.488-18.715 18.755-5.269-5.262-10.537-10.526-15.804-15.791-5.265-5.267-10.528-10.535-15.791-15.804 6.267-6.221 12.488-12.488 18.755-18.715 5.259 5.257 10.518 10.517 15.777 15.777z"
     id="path5016"
     style="fill:#962900;fill-opacity:0.24758911" /><path
     d="m718.35 838.79c1e-3 7.438 1e-3 14.875 0 22.313-8.834 0.028-17.665-4e-3 -26.495 0.028-5e-3 -7.447-8e-3 -14.894-0.01-22.341 2e-3 -7.447 5e-3 -14.894 0.01-22.341 8.83 0.032 17.661 0 26.495 0.028 1e-3 7.437 1e-3 14.875 0 22.313z"
     id="path5018"
     style="fill:#962900;fill-opacity:0.24758911" /><path
     d="m753.62 753.62c-5.258 5.26-10.518 10.519-15.778 15.778-6.267-6.227-12.488-12.494-18.755-18.715 5.262-5.269 10.526-10.537 15.791-15.804 5.267-5.265 10.535-10.528 15.804-15.791 6.221 6.267 12.488 12.488 18.715 18.755-5.258 5.259-10.517 10.518-15.777 15.777z"
     id="path5020"
     style="fill:#962900;fill-opacity:0.24758911" /><path
     d="m838.79 718.35c-7.438 1e-3 -14.875 1e-3 -22.313 0-0.028-8.834 4e-3 -17.665-0.028-26.495 7.447-5e-3 14.894-8e-3 22.341-0.01 7.447 2e-3 14.894 5e-3 22.341 0.01-0.032 8.83 0 17.661-0.028 26.495-7.438 1e-3 -14.876 1e-3 -22.313 0z"
     id="path5022"
     style="fill:#962900;fill-opacity:0.24758911" /></svg>